<svg xmlns="http://www.w3.org/2000/svg" xmlns:xlink="http://www.w3.org/1999/xlink" xmlns:lucid="lucid" width="2056.48" height="1540.7"><g transform="translate(0 0)" lucid:page-tab-id="0_0"><path d="M0 0h2056.48v1540.7H0z" fill="#fff"/><path d="M119 496.5c0-4.4 3.6-8 8-8h84c4.43 0 8 3.6 8 8v4.94c0 3.9-2.23 9.3-5 12.07-2.75 2.77-8.16 5-12.06 5H127c-4.4 0-8-3.57-8-8z" fill="#fff"/><path d="M219 488.5v20l-10 10h-90" stroke="#333" fill="none"/><path d="M119 496.5c0-4.4 3.6-8 8-8h1540.24c4.4 0 8 3.6 8 8v306.34c0 4.42-3.6 8-8 8H127c-4.4 0-8-3.58-8-8z" stroke="#333" fill="none"/><use xlink:href="#a" transform="matrix(1,0,0,1,127.00841198166825,488.51032798569213) translate(10.90123456790123 18.555555555555557)"/><use xlink:href="#b" transform="matrix(1,0,0,1,131.00841198166825,526.5103279856921) translate(12.64197530864196 18.555555555555557)"/><use xlink:href="#c" transform="matrix(1,0,0,1,131.00841198166825,526.5103279856921) translate(49.08641975308641 18.555555555555557)"/><use xlink:href="#d" transform="matrix(1,0,0,1,131.00841198166825,526.5103279856921) translate(136.8888888888889 18.555555555555557)"/><use xlink:href="#e" transform="matrix(1,0,0,1,131.00841198166825,526.5103279856921) translate(155.60493827160496 18.555555555555557)"/><path d="M497.7 258.34v10.1m.02 10.08l.02 20.2m.02 10.08l.02 20.18m0 10.1l.03 20.17m.03 10.1l.02 20.17m0 10.1l.04 20.17m0 10.08l.02 20.18m0 10.1l.04 20.17m0 10.1l.03 20.17m0 10.1l.03 20.17m0 10.1l.03 20.17m0 10.1l.04 20.17m0 10.1l.03 20.18m.02 10.1l.02 20.17m0 10.1l.03 20.17m.02 10.1l.02 20.17m0 10.08l.04 20.18m0 10.1l.03 20.17m.02 10.1l.03 20.17m0 10.1l.03 20.17m0 10.1l.04 20.17m0 10.1l.03 20.17m0 10.1l.04 20.18m0 10.1l.02 20.17m.02 10.1l.02 20.17m0 10.1l.03 20.17m0 10.08l.03 20.18m0 10.1l.04 20.17m0 10.1l.03 20.17m0 10.1l.04 20.17m0 10.1l.03 20.17m0 10.1l.04 20.17m.02 10.1l.02 20.18m0 10.1l.04 20.17m0 10.1l.03 20.17m.03 10.1l.02 20.17m0 10.08l.03 20.18m.02 10.1v10.08" stroke="#333" fill="none"/><path d="M498.2 258.36h-1v-.52h1z" fill="#333"/><path d="M499 1378.33v.5" stroke="#333" fill="none"/><path d="M478.77 328.57c0-4.4 3.58-8 8-8h24c4.42 0 8 3.6 8 8v1002.27c0 4.42-3.58 8-8 8h-24c-4.42 0-8-3.58-8-8z" stroke="#f2f2f2" fill="#ced4db"/><path d="M858.53 258.34v10.1m0 10.08v20.2m0 10.08v20.18m0 10.1v20.17m0 10.1v20.17m0 10.1v20.17m0 10.08v20.18m0 10.1v20.17m0 10.1v20.17m0 10.1v20.17m0 10.1v20.17m0 10.1v20.17m0 10.1v20.18m0 10.1v20.17m0 10.1v20.17m0 10.1v20.17m0 10.08v20.18m0 10.1v20.17m0 10.1v20.17m0 10.1v20.17m0 10.1v20.17m0 10.1v20.17m0 10.1v20.18m0 10.1v20.17m0 10.1v20.17m0 10.1v20.17m0 10.08v20.18m0 10.1v20.17m0 10.1V1116m0 10.1v20.17m0 10.1v20.17m0 10.1v20.17m0 10.1v20.18m0 10.1v20.17m0 10.1v20.17m0 10.1v20.17m0 10.08v20.18m0 10.1v10.08" stroke="#333" fill="none"/><path d="M859.03 258.36h-1v-.52h1z" fill="#333"/><path d="M858.53 1378.33v.5" stroke="#333" fill="none"/><path d="M838.53 518.84c0-4.4 3.58-8 8-8h24c4.42 0 8 3.6 8 8v44c0 4.42-3.58 8-8 8h-24c-4.42 0-8-3.58-8-8z" stroke="#f2f2f2" fill="#ced4db"/><path d="M1219.36 258.34v9.83m0 9.82v19.63m0 9.82v19.64m0 9.82v19.64m0 9.82v19.64m0 9.83v19.64m0 9.8v19.65m0 9.82v19.65m0 9.82v19.64m0 9.82v19.65m0 9.82v19.64m0 9.83v19.64m0 9.83v19.64m0 9.82v19.64m0 9.82v19.65m0 9.82v19.63m0 9.82v19.65m0 9.82v19.64m0 9.82v19.64m0 9.83v9.82l-.05.12-.1.04-.14.06-.05.12v9.82m0 9.83v19.64m0 9.83v19.64m0 9.82v19.64m0 9.82v19.64m0 9.82v19.65m0 9.82v19.63m0 9.82v19.64m0 9.82v19.64m0 9.82v19.64m0 9.82V1123m0 9.8v19.65m0 9.82v19.65m0 9.82v19.64m0 9.82v19.64m0 9.83v19.64m0 9.83v19.64m0 9.82v19.64m0 9.82v19.64m0 9.82v9.82" stroke="#333" fill="none"/><path d="M1219.86 258.36h-1v-.52h1z" fill="#333"/><path d="M1219 1378.33v.5" stroke="#333" fill="none"/><path d="M1199.36 598.84c0-4.4 3.6-8 8-8h24c4.42 0 8 3.6 8 8v64c0 4.42-3.58 8-8 8h-24c-4.4 0-8-3.58-8-8z" stroke="#f2f2f2" fill="#ced4db"/><path d="M1182.48 621.34h-662.7v-1h662.7zM519.78 621.34h-.5v-1h.5zM1197.25 620.84l-14.27 4.64v-9.27z" fill="#333"/><path d="M1198.86 620.84l-16.38 5.33v-10.65zm-15.38 3.95l12.15-3.96-12.15-3.94z" fill="#333"/><use xlink:href="#f" transform="matrix(1,0,0,1,955.0584119816679,595.244776043334) translate(0.0049999999999954525 14.4)"/><use xlink:href="#g" transform="matrix(1,0,0,1,955.0584119816679,595.244776043334) translate(79.905 14.4)"/><use xlink:href="#h" transform="matrix(1,0,0,1,955.0584119816679,595.244776043334) translate(131.905 14.4)"/><path d="M402.66 138.84c0-4.4 3.58-8 8-8h174.07c4.42 0 8 3.6 8 8v106c0 4.42-3.58 8-8 8H410.66c-4.42 0-8-3.58-8-8z" stroke="#3aa6dd" stroke-width="10" fill-opacity="0"/><use xlink:href="#i" transform="matrix(1,0,0,1,410.65810160792546,138.84477604333324) translate(41.82098765432099 56.55555555555555)"/><path d="M763.5 138.84c0-4.4 3.57-8 8-8h174.07c4.42 0 8 3.6 8 8v106c0 4.42-3.58 8-8 8H771.5c-4.43 0-8-3.58-8-8z" stroke="#5abaa7" stroke-width="10" fill-opacity="0"/><use xlink:href="#j" transform="matrix(1,0,0,1,771.492099936145,138.84477604333324) translate(48.53703703703703 56.55555555555555)"/><path d="M1124.33 138.84c0-4.4 3.58-8 8-8h174.07c4.42 0 8 3.6 8 8v106c0 4.42-3.58 8-8 8h-174.07c-4.42 0-8-3.58-8-8z" stroke="#fcc438" stroke-width="10" fill-opacity="0"/><use xlink:href="#k" transform="matrix(1,0,0,1,1132.3260982643649,138.84477604333324) translate(21.37654320987653 56.55555555555555)"/><use xlink:href="#l" transform="matrix(1,0,0,1,1132.3260982643649,138.84477604333324) translate(71.74691358024691 56.55555555555555)"/><path d="M99.75 336.26C99.75 347.16 90.9 356 80 356c-10.9 0-19.75-8.83-19.75-19.74 0-10.9 8.84-19.75 19.75-19.75 10.9 0 19.75 8.85 19.75 19.76z" stroke="#333" fill="#fff"/><path d="M80 356v47.3c0 4.43 1.92 11.04 4.28 14.77L120 474.5m-40-63.2l-40 63.2m0-98.74h80" stroke="#333" fill="none"/><path d="M40 324.5c0-4.4 3.58-8 8-8h64c4.42 0 8 3.6 8 8v164c0 4.43-3.58 8-8 8H48c-4.42 0-8-3.57-8-8z" fill="none"/><path d="M81.5 406.5h380.38M81.5 406.5H78" stroke="#333" fill="none"/><path d="M476.65 406.5l-14.27 4.65v-9.27z" stroke="#333" fill="#333"/><use xlink:href="#m" transform="matrix(1,0,0,1,249.1119040962347,410.5103279856929) translate(0.004999999999999005 14.222222222222223)"/><path d="M1198.36 643.34h-10.28v-1h10.28zm-20.56 0h-20.56v-1h20.56zm-30.84 0h-20.57v-1h20.56zm-30.85 0h-20.55v-1h20.56zm-96.6 0H1003v-1h16.5zm-26.77 0h-20.56v-1h20.56zm-30.85 0h-20.56v-1h20.56zm-30.84 0h-20.56v-1h20.56zm-30.85 0h-20.57v-1h20.56zm-30.85 0h-20.08v-1h20.08zm-29.88 0h-19.6v-1h19.6zm-29.4 0h-19.6v-1h19.6zm-29.4 0h-19.6v-1h19.6zm-29.4 0h-19.6v-1h19.6zm-29.4 0h-19.6v-1h19.6zm-29.4 0h-19.6v-1h19.6zm-29.4 0h-19.6v-1h19.6zm-29.4 0h-19.6v-1h19.6zm-29.4 0h-19.6v-1h19.6zm-29.4 0h-19.62v-1h19.6zm-29.42 0h-9.8v-1h9.8zm539.8 0h-18.74v-1h18.76zM1198.86 643.34h-.5v-1h.5zM535.15 647.48l-14.26-4.64 14.25-4.63z" fill="#333"/><path d="M535.65 648.17l-16.38-5.33 16.38-5.32zm-13.14-5.33l12.15 3.95v-7.9z" fill="#333"/><use xlink:href="#n" transform="matrix(1,0,0,1,1019.5084119816681,632.0447760433334) translate(0.004999999999999005 14.4)"/><path d="M821.64 528.68H519.77v-1h301.87z" fill="#333"/><path d="M519.78 528.68h-.5v-1h.5zM836.4 528.18l-14.26 4.63v-9.26z" fill="#333"/><path d="M838.03 528.18l-16.4 5.32v-10.65zm-15.4 3.95l12.16-3.95-12.16-3.95z" fill="#333"/><use xlink:href="#o" transform="matrix(1,0,0,1,655.4396115629118,502.8447760433332) translate(0.004999999999999005 14.222222222222223)"/><path d="M601.86 48c0-4.42 3.58-8 8-8h836.75c4.43 0 8 3.58 8 8v25.16c0 4.4-3.57 8-8 8H609.87c-4.42 0-8-3.6-8-8z" stroke="#000" stroke-opacity="0" stroke-width="2" fill="#fff" fill-opacity="0"/><use xlink:href="#p" transform="matrix(1,0,0,1,605.8631159024144,44) translate(302.23777777777775 25.782777777777778)"/><use xlink:href="#q" transform="matrix(1,0,0,1,605.8631159024144,44) translate(456.2933333333333 25.782777777777778)"/><path d="M873.74 79.8H1192M873.76 79.8h-1.02M1191.97 79.8h1.03" stroke="#a9afb8" stroke-width="2" fill="none"/><path d="M837.53 551.34h-10.06v-1h10.06zm-20.13 0h-20.12v-1h20.12zm-30.18 0H767.1v-1h20.12zm-30.2 0H736.9v-1h20.13zm-30.18 0h-20.12v-1h20.12zm-71.7 0h-8.8v-1h8.8zm-18.86 0h-20.13v-1h20.13zm-30.2 0H586v-1h20.1zm-30.18 0h-20.12v-1h20.12zm-30.18 0h-10.07v-1h10.07zM838.03 551.34h-.5v-1h.5zM535.15 555.48l-14.26-4.64 14.25-4.63z" fill="#333"/><path d="M535.65 556.17l-16.38-5.33 16.38-5.32zm-13.14-5.33l12.15 3.95v-7.9z" fill="#333"/><use xlink:href="#n" transform="matrix(1,0,0,1,655.1494881061217,540.0447760433333) translate(0.004999999999999005 14.4)"/><path d="M821.65 528.68H519.77v-1h301.88z" fill="#333"/><path d="M519.78 528.68h-.5v-1h.5zM836.4 528.18l-14.25 4.63v-9.26z" fill="#333"/><path d="M838.03 528.18l-16.38 5.32v-10.65zm-15.38 3.95l12.14-3.95-12.15-3.95z" fill="#333"/><use xlink:href="#o" transform="matrix(1,0,0,1,655.4396115629118,502.8447760433332) translate(0.004999999999999005 14.222222222222223)"/><path d="M1198.86 738.84c0-4.4 3.6-8 8-8h24c4.42 0 8 3.6 8 8v44c0 4.42-3.58 8-8 8h-24c-4.4 0-8-3.58-8-8z" stroke="#f2f2f2" fill="#ced4db"/><path d="M519.27 760.84h662.7M519.28 760.84h-.5" stroke="#333" fill="none"/><path d="M1196.75 760.84l-14.27 4.64v-9.27z" stroke="#333" fill="#333"/><use xlink:href="#f" transform="matrix(1,0,0,1,934.6084119816682,735.244776043334) translate(0.0049999999999954525 14.4)"/><use xlink:href="#g" transform="matrix(1,0,0,1,934.6084119816682,735.244776043334) translate(79.905 14.4)"/><use xlink:href="#r" transform="matrix(1,0,0,1,934.6084119816682,735.244776043334) translate(131.905 14.4)"/><use xlink:href="#h" transform="matrix(1,0,0,1,934.6084119816682,735.244776043334) translate(180.805 14.4)"/><path d="M1199.1 833.34c0-4.42 3.58-8 8-8h24c4.42 0 8 3.58 8 8v44c0 4.42-3.58 8-8 8h-24c-4.42 0-8-3.58-8-8z" stroke="#f2f2f2" fill="#ced4db"/><path d="M519.5 855.34h662.72M519.52 855.34h-.5" stroke="#333" fill="none"/><path d="M1196.98 855.34l-14.26 4.64v-9.27z" stroke="#333" fill="#333"/><use xlink:href="#f" transform="matrix(1,0,0,1,927.6334119816684,829.7408797160489) translate(0.0049999999999954525 14.4)"/><use xlink:href="#s" transform="matrix(1,0,0,1,927.6334119816684,829.7408797160489) translate(79.905 14.4)"/><use xlink:href="#r" transform="matrix(1,0,0,1,927.6334119816684,829.7408797160489) translate(145.85500000000002 14.4)"/><use xlink:href="#h" transform="matrix(1,0,0,1,927.6334119816684,829.7408797160489) translate(194.75500000000002 14.4)"/><path d="M119 926.84c0-4.4 3.6-8 8-8h84c4.43 0 8 3.6 8 8v4.93c0 3.9-2.23 9.3-5 12.07-2.75 2.77-8.16 5-12.06 5H127c-4.4 0-8-3.58-8-8z" fill="#fff"/><path d="M219 918.84v20l-10 10h-90" stroke="#333" fill="none"/><path d="M119 926.84c0-4.4 3.6-8 8-8h1884c4.43 0 8 3.6 8 8v304c0 4.42-3.57 8-8 8H127c-4.4 0-8-3.58-8-8z" stroke="#333" fill="none"/><use xlink:href="#t" transform="matrix(1,0,0,1,127.00841198166836,918.8447760433332) translate(0.02499999999999858 18.6)"/><use xlink:href="#u" transform="matrix(1,0,0,1,131.00841198166836,956.8447760433332) translate(6.274999999999977 18.6)"/><use xlink:href="#v" transform="matrix(1,0,0,1,131.00841198166836,956.8447760433332) translate(43.17499999999998 18.6)"/><use xlink:href="#w" transform="matrix(1,0,0,1,131.00841198166836,956.8447760433332) translate(114.02499999999999 18.6)"/><use xlink:href="#x" transform="matrix(1,0,0,1,131.00841198166836,956.8447760433332) translate(202.925 18.6)"/><use xlink:href="#y" transform="matrix(1,0,0,1,131.00841198166836,956.8447760433332) translate(221.875 18.6)"/><use xlink:href="#z" transform="matrix(1,0,0,1,131.00841198166836,956.8447760433332) translate(284.825 18.6)"/><path d="M838.03 946.84c0-4.4 3.58-8 8-8h24c4.42 0 8 3.6 8 8v44c0 4.42-3.58 8-8 8h-24c-4.42 0-8-3.58-8-8z" stroke="#f2f2f2" fill="#ced4db"/><path d="M837.03 979.34h-10.6v-1h10.6zm-21.18 0h-21.2v-1h21.2zm-31.78 0H762.9v-1h21.17zm-31.78 0h-21.2v-1h21.2zm-121.82 0h-19.06v-1h19.06zm-28.6 0h-19.06v-1h19.07zm-28.6 0h-19.06v-1h19.07zm-28.6 0h-9.53v-1h9.54zm175.84 0h-1.4v-1h1.4zM837.53 979.34h-.5v-1h.5zM534.65 983.48l-14.26-4.64 14.25-4.63z" fill="#333"/><path d="M535.15 984.17l-16.38-5.33 16.38-5.32zM522 978.84l12.15 3.95v-7.9z" fill="#333"/><use xlink:href="#t" transform="matrix(1,0,0,1,637.1744881061217,968.0447760433334) translate(0.005000000000002558 14.4)"/><path d="M821.15 956.68H519.27v-1h301.88z" fill="#333"/><path d="M519.28 956.68h-.5v-1h.5zM835.9 956.18l-14.25 4.63v-9.26z" fill="#333"/><path d="M837.53 956.18l-16.38 5.32v-10.65zm-15.38 3.95l12.14-3.95-12.15-3.95z" fill="#333"/><use xlink:href="#A" transform="matrix(1,0,0,1,651.9766485999488,930.8447760433334) translate(0.004999999999999005 14.222222222222223)"/><path d="M1198.86 1026.84c0-4.4 3.6-8 8-8h24c4.42 0 8 3.6 8 8v64c0 4.42-3.58 8-8 8h-24c-4.4 0-8-3.58-8-8z" stroke="#f2f2f2" fill="#ced4db"/><path d="M1181.98 1049.34h-662.7v-1h662.7zM519.28 1049.34h-.5v-1h.5zM1196.75 1048.84l-14.27 4.64v-9.27z" fill="#333"/><path d="M1198.36 1048.84l-16.38 5.33v-10.65zm-15.38 3.95l12.15-3.96-12.15-3.94z" fill="#333"/><use xlink:href="#f" transform="matrix(1,0,0,1,937.0834119816684,1023.244776043334) translate(0.0049999999999954525 14.4)"/><use xlink:href="#B" transform="matrix(1,0,0,1,937.0834119816684,1023.244776043334) translate(79.905 14.4)"/><use xlink:href="#h" transform="matrix(1,0,0,1,937.0834119816684,1023.244776043334) translate(166.85500000000002 14.4)"/><path d="M1197.86 1071.34h-10.04v-1h10.04zm-20.08 0h-20.08v-1h20.08zm-30.12 0h-20.08v-1h20.08zm-30.12 0h-20.1v-1h20.1zm-120.5 0h-20.08v-1h20.08zm-30.12 0h-20.08v-1h20.08zm-30.12 0h-20.1v-1h20.1zm-30.13 0H886.6v-1h20.07zm-30.12 0h-20.08v-1h20.08zm-30.12 0h-20.1v-1h20.1zm-30.13 0h-20.08v-1h20.08zm-30.12 0H766.1v-1h20.08zm-30.12 0h-20.1v-1h20.1zm-30.13 0h-20.08v-1h20.08zm-30.12 0h-20.07v-1h20.08zm-30.1 0h-20.1v-1h20.1zm-30.14 0h-20.08v-1h20.08zm-30.12 0h-20.08v-1h20.08zm-30.12 0h-20.08v-1h20.08zm-30.13 0h-10.05v-1h10.04zm542.2 0h-3.92v-1h3.93zM1198.36 1071.34h-.5v-1h.5zM534.65 1075.48l-14.26-4.64 14.25-4.63z" fill="#333"/><path d="M535.15 1076.17l-16.38-5.33 16.38-5.32zm-13.14-5.33l12.15 3.95v-7.9z" fill="#333"/><use xlink:href="#t" transform="matrix(1,0,0,1,1001.5334119816681,1060.0447760433333) translate(0.005000000000002558 14.4)"/><path d="M1198.86 1166.84c0-4.4 3.6-8 8-8h24c4.42 0 8 3.6 8 8v44c0 4.42-3.58 8-8 8h-24c-4.4 0-8-3.58-8-8z" stroke="#f2f2f2" fill="#ced4db"/><path d="M519.27 1188.84h662.7M519.28 1188.84h-.5" stroke="#333" fill="none"/><path d="M1196.75 1188.84l-14.27 4.64v-9.27z" stroke="#333" fill="#333"/><use xlink:href="#f" transform="matrix(1,0,0,1,917.1334119816684,1163.244776043334) translate(0.0049999999999954525 14.4)"/><use xlink:href="#B" transform="matrix(1,0,0,1,917.1334119816684,1163.244776043334) translate(79.905 14.4)"/><use xlink:href="#r" transform="matrix(1,0,0,1,917.1334119816684,1163.244776043334) translate(166.85500000000002 14.4)"/><use xlink:href="#h" transform="matrix(1,0,0,1,917.1334119816684,1163.244776043334) translate(215.75500000000002 14.4)"/><path d="M1580.2 258.34v10.1m0 10.08v20.2m0 10.08v20.18m0 10.1v20.17m0 10.1v20.17m0 10.1v20.17m0 10.08v20.18m0 10.1v20.17m0 10.1v20.17m0 10.1v20.17m0 10.1v20.17m0 10.1v20.17m0 10.1v20.18m0 10.1v20.17m0 10.1v20.17m0 10.1v20.17m0 10.08v20.18m0 10.1v20.17m0 10.1v20.17m0 10.1v20.17m0 10.1v20.17m0 10.1v20.17m0 10.1v20.18m0 10.1v20.17m0 10.1v20.17m0 10.1v20.17m0 10.08v20.18m0 10.1v20.17m0 10.1V1116m0 10.1v20.17m0 10.1v20.17m0 10.1v20.17m0 10.1v20.18m0 10.1v20.17m0 10.1v20.17m0 10.1v20.17m0 10.08v20.18m0 10.1v10.08" stroke="#333" fill="none"/><path d="M1580.7 258.36h-1v-.52h1z" fill="#333"/><path d="M1580.2 1378.33v.5" stroke="#333" fill="none"/><path d="M1485.16 138.84c0-4.4 3.58-8 8-8h174.08c4.4 0 8 3.6 8 8v106c0 4.42-3.6 8-8 8h-174.08c-4.42 0-8-3.58-8-8z" stroke="#77818c" stroke-width="10" fill-opacity="0"/><use xlink:href="#C" transform="matrix(1,0,0,1,1493.1600965925852,138.84477604333324) translate(64.29012345679013 56.55555555555555)"/><path d="M1941.03 258.34v10.1m0 10.08v20.2m0 10.08v20.18m0 10.1v20.17m0 10.1v20.17m0 10.1v20.17m0 10.08v20.18m0 10.1v20.17m0 10.1v20.17m0 10.1v20.17m0 10.1v20.17m0 10.1v20.17m0 10.1v20.18m0 10.1v20.17m0 10.1v20.17m0 10.1v20.17m0 10.08v20.18m0 10.1v20.17m0 10.1v20.17m0 10.1v20.17m0 10.1v20.17m0 10.1v20.17m0 10.1v20.18m0 10.1v20.17m0 10.1v20.17m0 10.1v20.17m0 10.08v20.18m0 10.1v20.17m0 10.1V1116m0 10.1v20.17m0 10.1v20.17m0 10.1v20.17m0 10.1v20.18m0 10.1v20.17m0 10.1v20.17m0 10.1v20.17m0 10.08v20.18m0 10.1v10.08" stroke="#333" fill="none"/><path d="M1941.53 258.36h-1v-.52h1z" fill="#333"/><path d="M1941.03 1378.33v.5" stroke="#333" fill="none"/><path d="M1846 138.84c0-4.4 3.58-8 8-8h174.07c4.42 0 8 3.6 8 8v106c0 4.42-3.58 8-8 8H1854c-4.42 0-8-3.58-8-8z" stroke="#3aa6dd" stroke-width="10" fill-opacity="0"/><use xlink:href="#D" transform="matrix(1,0,0,1,1853.9940949208055,138.84477604333324) translate(47.03086419753086 56.55555555555555)"/><path d="M1558.12 678.84c0-4.4 3.6-8 8-8h24c4.42 0 8 3.6 8 8v44c0 4.42-3.58 8-8 8h-24c-4.4 0-8-3.58-8-8z" stroke="#f2f2f2" fill="#ced4db"/><path d="M1557.12 710.84h-10.17m-10.17 0h-20.34m-10.17 0h-20.34m-10.17 0h-20.34m-10.17 0h-20.34m-10.16 0h-20.34m-10.17 0h-20.34m-10.18 0h-20.34m-10.17 0h-20.33m-10.17 0h-20.34m-10.17 0h-20.35m-10.17 0h-20.34m-10.17 0h-20.34m-10.17 0h-20.34m-10.17 0h-20.34m-10.16 0h-20.34m-10.17 0h-20.34m-10.18 0h-20.03m-9.87 0H999m-9.85 0h-19.7m-9.87 0h-19.72m-9.86 0h-19.72m-9.85 0H880.7m-9.85 0h-19.72m-9.86 0h-19.7m-9.87 0h-19.72m-9.86 0H762.4m-9.85 0h-19.72m-9.86 0h-19.72m-9.86 0h-19.72m-9.86 0H644.1m-9.86 0h-19.72m-9.86 0h-19.7m-9.87 0h-19.73m-9.86 0h-9.85" stroke="#333" fill="none"/><path d="M1557.62 711.34h-.5v-1h.5z" fill="#333"/><path d="M520.9 710.84l14.25-4.63v9.28z" stroke="#333" fill="#333"/><use xlink:href="#E" transform="matrix(1,0,0,1,1351.0584119816683,714.8447760433334) translate(0.005000000000002558 14.4)"/><use xlink:href="#F" transform="matrix(1,0,0,1,1351.0584119816683,714.8447760433334) translate(52.005 14.4)"/><path d="M519.77 688.18h1021.47" stroke="#333" fill="none"/><path d="M519.78 688.68h-.5v-1h.5z" fill="#333"/><path d="M1556 688.18l-14.26 4.63v-9.26z" stroke="#333" fill="#333"/><g><use xlink:href="#A" transform="matrix(1,0,0,1,1372.8355724754956,662.8447760433332) translate(0.004999999999999005 14.222222222222223)"/></g><path d="M1917.86 1106.84c0-4.4 3.6-8 8-8h24c4.42 0 8 3.6 8 8v44c0 4.42-3.58 8-8 8h-24c-4.4 0-8-3.58-8-8z" stroke="#f2f2f2" fill="#ced4db"/><path d="M1916.86 1138.84h-10m-10 0h-20.03m-10 0h-20.03m-10 0h-20.02m-10 0h-20.03m-10 0h-20.03m-10 0h-20.02m-10 0h-20.03m-10 0h-20.03m-10 0h-20.02m-10 0h-20.03m-10.02 0h-20m-10.02 0h-20.02m-10 0h-20.03m-10 0h-20m-10.02 0h-20.02m-10 0h-20.03m-10 0h-20.02m-10 0h-20.02m-10 0h-20.03m-10 0h-20.02m-10 0h-20.03m-10 0h-20.02m-10 0h-20.03m-10 0h-20.03m-10 0h-20.02m-10 0h-20.03m-10 0h-20.03m-10 0h-20.02m-10 0h-20.03m-10.02 0h-20m-10.02 0h-20.02m-10 0H946m-10 0h-20m-10.02 0h-20.02m-10 0h-20.03m-10 0H825.9m-10 0h-20.02m-10 0h-20.03m-10 0h-20.02m-10 0H705.8m-10 0h-20.02m-10 0h-20.03m-10 0H615.7m-10 0H585.7m-10 0h-20.03m-10 0h-10.02" stroke="#333" fill="none"/><path d="M1917.36 1139.34h-.5v-1h.5z" fill="#333"/><path d="M520.9 1138.84l14.25-4.63v9.28z" stroke="#333" fill="#333"/><g><use xlink:href="#G" transform="matrix(1,0,0,1,1638.369967405425,1142.8447760433332) translate(0.0049999999999954525 14.4)"/><use xlink:href="#F" transform="matrix(1,0,0,1,1638.369967405425,1142.8447760433332) translate(86.955 14.4)"/></g><path d="M519.77 1116.18h1381.2" stroke="#333" fill="none"/><path d="M519.78 1116.68h-.5v-1h.5z" fill="#333"/><path d="M1915.75 1116.18l-14.27 4.63v-9.26z" stroke="#333" fill="#333"/><g><use xlink:href="#A" transform="matrix(1,0,0,1,1677.6221278992525,1090.8447760433335) translate(0.004999999999999005 14.222222222222223)"/></g><path d="M1198.86 1286.84c0-4.4 3.6-8 8-8h24c4.42 0 8 3.6 8 8v44c0 4.42-3.58 8-8 8h-24c-4.4 0-8-3.58-8-8z" stroke="#f2f2f2" fill="#ced4db"/><path d="M519.27 1308.84h662.7M519.28 1308.84h-.5" stroke="#333" fill="none"/><path d="M1196.75 1308.84l-14.27 4.64v-9.27z" stroke="#333" fill="#333"/><g><use xlink:href="#f" transform="matrix(1,0,0,1,927.2084119816684,1283.244776043334) translate(0.0049999999999954525 14.4)"/><use xlink:href="#H" transform="matrix(1,0,0,1,927.2084119816684,1283.244776043334) translate(79.905 14.4)"/><use xlink:href="#r" transform="matrix(1,0,0,1,927.2084119816684,1283.244776043334) translate(146.705 14.4)"/><use xlink:href="#h" transform="matrix(1,0,0,1,927.2084119816684,1283.244776043334) translate(195.60500000000002 14.4)"/></g><path d="M550 1384.84h81c4.43 0 8 3.6 8 8v118c0 4.42-3.57 8-8 8H407c-4.4 0-8-3.58-8-8v-144c0-4.4 3.6-8 8-8h128c4.43 0 8.94 3.46 10.1 7.73zm-151 0h151" stroke="#19967d" stroke-width="7" fill="#fff"/><g><use xlink:href="#I" transform="matrix(1,0,0,1,407.00841198166825,1358.8447760433332) translate(4.6499999999999915 16.6)"/><use xlink:href="#F" transform="matrix(1,0,0,1,407.00841198166825,1358.8447760433332) translate(71.45 16.6)"/></g><g><use xlink:href="#J" transform="matrix(1,0,0,1,411.00841198166825,1392.8447760433332) translate(53.074999999999996 51.8)"/><use xlink:href="#K" transform="matrix(1,0,0,1,411.00841198166825,1392.8447760433332) translate(119.025 51.8)"/><use xlink:href="#L" transform="matrix(1,0,0,1,411.00841198166825,1392.8447760433332) translate(38.07499999999999 73.4)"/><use xlink:href="#M" transform="matrix(1,0,0,1,411.00841198166825,1392.8447760433332) translate(125.02499999999999 73.4)"/></g><path d="M395 1438.84h-5.04m-5.05 0h-10.1m-5.04 0h-10.1m-5.05 0h-10.1m-5.04 0h-10.1m-5.05 0h-10.1m-5.04 0h-10.1m-5.05 0h-10.1m-5.04 0h-10.1m-5.06 0h-10.1m-5.05 0h-10.1m-5.05 0h-10.1m-5.05 0h-10.1m-5.05 0H193m-5.05 0h-10.1m-5.05 0h-10.1m-5.05 0h-10.1m-5.05 0h-10.1m-5.05 0h-10.1m-5.05 0h-10.1m-5.05 0H92l-3.1-.4-2.9-1.2m-4.4-4.4l-1.2-2.88-.4-3.12v-4.96m0-4.97V1407m0-4.97v-9.92m0-4.97v-9.92m0-4.96v-9.94m0-4.96v-9.94m0-4.96v-9.93m0-4.98v-9.93m0-4.98v-9.93m0-4.98v-9.93m0-4.98v-9.93m0-4.98V1258m0-4.97v-9.94m0-4.97v-9.94m0-4.97v-9.93m0-4.97v-9.93m0-4.97v-9.93m0-4.97v-9.93m0-4.97v-9.93m0-4.97v-9.93m0-4.96v-9.94m0-4.96V1109m0-4.96v-9.93m0-4.96v-9.93m0-4.96v-9.93m0-4.96v-9.93m0-4.96v-9.93m0-4.95v-9.94m0-4.95v-9.94m0-4.95v-9.93m0-4.97v-9.93m0-4.97v-9.93m0-4.97v-9.93m0-4.97v-9.93m0-4.97v-9.93m0-4.96v-9.94m0-4.96v-9.94m0-4.96v-9.93m0-4.97v-9.93m0-4.97v-9.93m0-4.97v-9.93m0-4.97v-9.93m0-4.97v-9.93m0-4.96v-9.94m0-4.96v-9.94m0-4.96v-9.93m0-4.97v-9.93m0-4.97v-9.93m0-4.97v-9.93m0-4.97v-9.93m0-4.97v-9.93m0-4.96v-9.94m0-4.96v-9.94m0-4.96v-9.93m0-4.97v-9.93m0-4.97v-9.93m0-4.97v-9.93m0-4.97v-9.93m0-4.97v-9.93m0-4.96v-9.95m0-4.96v-9.95m0-4.96v-9.94m0-4.97v-9.94m0-4.97v-9.94m0-4.97v-9.94m0-4.97v-9.94m0-4.97v-9.94m0-4.96v-4.97" stroke="#333" fill="none"/><path d="M395.5 1439.34h-.5v-1h.5z" fill="#333"/><path d="M80 413.86l4.64 14.27h-9.28z" stroke="#333" fill="#333"/><defs><path fill="#333" d="M194-120c59 52 2 134-86 124-53-6-90-18-98-63l31-7c8 30 29 43 70 43 46 0 84-17 71-62-32-43-135-20-137-98-3-89 178-90 191-16l-30 9c-8-48-127-53-127 5 0 53 81 35 115 65" id="N"/><path fill="#333" d="M51-54c-9 22 5 41 31 30L79-1C43 14 10-4 19-52l22-115H19l5-23h22l19-43h21l-9 43h35l-4 23H73" id="O"/><path fill="#333" d="M165-48c-4 18 1 34 23 27l-3 20c-29 8-62 0-52-35h-2C116-14 99 4 63 4 30 4 8-16 8-49c0-68 71-67 138-67 10-26 0-56-31-54-26 1-42 9-47 31l-32-5c8-67 160-71 144 15-5 28-9 54-15 81zM42-50c3 52 80 24 89-6 7-12 7-24 11-38-47 1-103-4-100 44" id="P"/><path fill="#333" d="M103-194c29 0 47 14 56 36 2-11 5-23 8-32h30L160-5C157 61 82 97 21 62 9 55 4 45 1 30l28-7c7 42 83 31 92-3 4-16 9-38 13-55-13 20-29 36-62 36-40 0-60-25-60-64 0-71 23-131 91-131zm4 24c-53 0-58 54-61 104-2 27 10 44 36 44 49 0 65-50 67-102 1-29-15-46-42-46" id="Q"/><path fill="#333" d="M50-231l6-30h32l-6 30H50zM6 0l37-190h31L37 0H6" id="R"/><path fill="#333" d="M67-158c22-48 132-52 116 29L158 0h-32l25-140c3-38-53-32-70-12C52-117 51-52 38 0H6l36-190h30" id="S"/><g id="a"><use transform="matrix(0.04938271604938272,0,0,0.04938271604938272,0,0)" xlink:href="#N"/><use transform="matrix(0.04938271604938272,0,0,0.04938271604938272,11.851851851851853,0)" xlink:href="#O"/><use transform="matrix(0.04938271604938272,0,0,0.04938271604938272,16.790123456790127,0)" xlink:href="#P"/><use transform="matrix(0.04938271604938272,0,0,0.04938271604938272,26.666666666666668,0)" xlink:href="#Q"/><use transform="matrix(0.04938271604938272,0,0,0.04938271604938272,36.543209876543216,0)" xlink:href="#R"/><use transform="matrix(0.04938271604938272,0,0,0.04938271604938272,40.44444444444445,0)" xlink:href="#S"/><use transform="matrix(0.04938271604938272,0,0,0.04938271604938272,50.320987654320994,0)" xlink:href="#Q"/></g><path fill="#333" d="M-7 75l65-336h72l-5 23H84L28 52h41l-4 23H-7" id="T"/><path fill="#333" d="M87-220l-18 92h140l-5 28H64L45 0H11l48-248h178l-5 28H87" id="U"/><path fill="#333" d="M30-147c31-64 166-65 159 27C183-49 158 1 86 4 9 8 1-88 30-147zM88-20c53 0 68-48 68-100 0-31-11-51-44-50-52 1-68 46-68 97 0 32 13 53 44 53" id="V"/><path fill="#333" d="M66-151c12-25 30-51 66-40l-6 26C45-176 58-65 38 0H6l36-190h30" id="W"/><g id="b"><use transform="matrix(0.04938271604938272,0,0,0.04938271604938272,0,0)" xlink:href="#T"/><use transform="matrix(0.04938271604938272,0,0,0.04938271604938272,4.938271604938272,0)" xlink:href="#U"/><use transform="matrix(0.04938271604938272,0,0,0.04938271604938272,15.753086419753087,0)" xlink:href="#V"/><use transform="matrix(0.04938271604938272,0,0,0.04938271604938272,25.629629629629633,0)" xlink:href="#W"/></g><path fill="#333" d="M67-162c32-53 139-36 121 50C175-51 163 2 97 4 68 4 52-11 42-31 38 6 28 39 22 75H-9l50-265h29c-1 10 0 20-3 28zm89 36c0-26-10-43-35-43-54 0-67 50-69 103-1 29 14 45 42 46 53 0 62-58 62-106" id="X"/><path fill="#333" d="M111-194c62-3 86 47 72 106H45c-7 38 6 69 45 68 27-1 43-14 53-32l24 11C152-15 129 4 87 4 38 3 12-23 12-71c0-70 32-119 99-123zm44 81c14-66-71-72-95-28-4 8-8 17-11 28h106" id="Y"/><path fill="#333" d="M55-144c13 50 104 24 104 88C159 21 15 23 1-39l26-10c6 40 102 42 102-4-13-50-104-23-104-87 0-71 143-71 148-8l-29 4c-5-35-85-37-89 0" id="Z"/><g id="c"><use transform="matrix(0.04938271604938272,0,0,0.04938271604938272,0,0)" xlink:href="#V"/><use transform="matrix(0.04938271604938272,0,0,0.04938271604938272,9.876543209876544,0)" xlink:href="#X"/><use transform="matrix(0.04938271604938272,0,0,0.04938271604938272,19.75308641975309,0)" xlink:href="#Y"/><use transform="matrix(0.04938271604938272,0,0,0.04938271604938272,29.629629629629633,0)" xlink:href="#W"/><use transform="matrix(0.04938271604938272,0,0,0.04938271604938272,35.50617283950618,0)" xlink:href="#P"/><use transform="matrix(0.04938271604938272,0,0,0.04938271604938272,45.38271604938272,0)" xlink:href="#O"/><use transform="matrix(0.04938271604938272,0,0,0.04938271604938272,50.320987654320994,0)" xlink:href="#R"/><use transform="matrix(0.04938271604938272,0,0,0.04938271604938272,54.22222222222223,0)" xlink:href="#V"/><use transform="matrix(0.04938271604938272,0,0,0.04938271604938272,64.09876543209877,0)" xlink:href="#S"/><use transform="matrix(0.04938271604938272,0,0,0.04938271604938272,73.97530864197532,0)" xlink:href="#Z"/></g><g id="d"><use transform="matrix(0.04938271604938272,0,0,0.04938271604938272,0,0)" xlink:href="#R"/><use transform="matrix(0.04938271604938272,0,0,0.04938271604938272,3.901234567901235,0)" xlink:href="#S"/></g><path fill="#333" d="M44-68c0 29 11 47 38 47 30 0 42-19 51-41l28 9C148-21 126 4 82 4 31 4 10-29 12-85c3-77 74-140 146-93 12 8 15 23 18 40l-31 5c-1-22-13-36-36-36-52 0-65 49-65 101" id="aa"/><path fill="#333" d="M-30 75l5-23h40l57-290H31l4-23h72L42 75h-72" id="ab"/><g id="e"><use transform="matrix(0.04938271604938272,0,0,0.04938271604938272,0,0)" xlink:href="#O"/><use transform="matrix(0.04938271604938272,0,0,0.04938271604938272,4.938271604938272,0)" xlink:href="#W"/><use transform="matrix(0.04938271604938272,0,0,0.04938271604938272,10.814814814814817,0)" xlink:href="#P"/><use transform="matrix(0.04938271604938272,0,0,0.04938271604938272,20.69135802469136,0)" xlink:href="#S"/><use transform="matrix(0.04938271604938272,0,0,0.04938271604938272,30.567901234567906,0)" xlink:href="#Z"/><use transform="matrix(0.04938271604938272,0,0,0.04938271604938272,39.4567901234568,0)" xlink:href="#P"/><use transform="matrix(0.04938271604938272,0,0,0.04938271604938272,49.33333333333334,0)" xlink:href="#aa"/><use transform="matrix(0.04938271604938272,0,0,0.04938271604938272,58.22222222222223,0)" xlink:href="#O"/><use transform="matrix(0.04938271604938272,0,0,0.04938271604938272,63.1604938271605,0)" xlink:href="#R"/><use transform="matrix(0.04938271604938272,0,0,0.04938271604938272,67.06172839506173,0)" xlink:href="#V"/><use transform="matrix(0.04938271604938272,0,0,0.04938271604938272,76.93827160493828,0)" xlink:href="#S"/><use transform="matrix(0.04938271604938272,0,0,0.04938271604938272,86.81481481481482,0)" xlink:href="#ab"/></g><path fill="#333" d="M248-139C247-14 144 9 11 0l48-248c105-6 190 8 189 109zm-34 0c1-70-52-87-126-82L50-27c98 7 163-21 164-112" id="ac"/><path fill="#333" d="M67-158c15-20 31-36 64-36 94 0 33 127 27 194h-32l25-140c3-38-53-32-70-12C52-117 51-51 37 0H6l51-261h31" id="ad"/><path fill="#333" d="M44-154l7-36h35l-8 36H44zM14 0l7-36h35L49 0H14" id="ae"/><g id="f"><use transform="matrix(0.05,0,0,0.05,0,0)" xlink:href="#ac"/><use transform="matrix(0.05,0,0,0.05,12.950000000000001,0)" xlink:href="#R"/><use transform="matrix(0.05,0,0,0.05,16.900000000000002,0)" xlink:href="#Z"/><use transform="matrix(0.05,0,0,0.05,25.900000000000002,0)" xlink:href="#X"/><use transform="matrix(0.05,0,0,0.05,35.900000000000006,0)" xlink:href="#P"/><use transform="matrix(0.05,0,0,0.05,45.900000000000006,0)" xlink:href="#O"/><use transform="matrix(0.05,0,0,0.05,50.900000000000006,0)" xlink:href="#aa"/><use transform="matrix(0.05,0,0,0.05,59.900000000000006,0)" xlink:href="#ad"/><use transform="matrix(0.05,0,0,0.05,69.9,0)" xlink:href="#ae"/></g><path fill="#333" d="M185-189c-5-48-123-54-124 2 14 75 158 14 163 119 3 78-121 87-175 55-17-10-28-26-33-46l33-7c5 56 141 63 141-1 0-78-155-14-162-118-5-82 145-84 179-34 5 7 8 16 11 25" id="af"/><path fill="#333" d="M59-47c-2 24 18 29 38 22v24C64 9 27 4 27-40v-127H5v-23h24l9-43h21v43h35v23H59v120" id="ag"/><path fill="#333" d="M141-36C126-15 110 5 73 4 37 3 15-17 15-53c-1-64 63-63 125-63 3-35-9-54-41-54-24 1-41 7-42 31l-33-3c5-37 33-52 76-52 45 0 72 20 72 64v82c-1 20 7 32 28 27v20c-31 9-61-2-59-35zM48-53c0 20 12 33 32 33 41-3 63-29 60-74-43 2-92-5-92 41" id="ah"/><path fill="#333" d="M177-190C167-65 218 103 67 71c-23-6-38-20-44-43l32-5c15 47 100 32 89-28v-30C133-14 115 1 83 1 29 1 15-40 15-95c0-56 16-97 71-98 29-1 48 16 59 35 1-10 0-23 2-32h30zM94-22c36 0 50-32 50-73 0-42-14-75-50-75-39 0-46 34-46 75s6 73 46 73" id="ai"/><path fill="#333" d="M100-194c63 0 86 42 84 106H49c0 40 14 67 53 68 26 1 43-12 49-29l28 8c-11 28-37 45-77 45C44 4 14-33 15-96c1-61 26-98 85-98zm52 81c6-60-76-77-97-28-3 7-6 17-6 28h103" id="aj"/><g id="g"><use transform="matrix(0.05,0,0,0.05,0,0)" xlink:href="#af"/><use transform="matrix(0.05,0,0,0.05,12,0)" xlink:href="#ag"/><use transform="matrix(0.05,0,0,0.05,17,0)" xlink:href="#ah"/><use transform="matrix(0.05,0,0,0.05,27,0)" xlink:href="#ai"/><use transform="matrix(0.05,0,0,0.05,37,0)" xlink:href="#aj"/></g><path fill="#333" d="M108 0H70L1-190h34L89-25l56-165h34" id="ak"/><path fill="#333" d="M117-194c89-4 53 116 60 194h-32v-121c0-31-8-49-39-48C34-167 62-67 57 0H25l-1-190h30c1 10-1 24 2 32 11-22 29-35 61-36" id="al"/><g id="h"><use transform="matrix(0.05,0,0,0.05,0,0)" xlink:href="#aj"/><use transform="matrix(0.05,0,0,0.05,10,0)" xlink:href="#ak"/><use transform="matrix(0.05,0,0,0.05,19,0)" xlink:href="#aj"/><use transform="matrix(0.05,0,0,0.05,29,0)" xlink:href="#al"/><use transform="matrix(0.05,0,0,0.05,39,0)" xlink:href="#ag"/></g><path fill="#333" d="M151-220L108 0H75l42-220H32l6-28h203l-5 28h-85" id="am"/><g id="i"><use transform="matrix(0.04938271604938272,0,0,0.04938271604938272,0,0)" xlink:href="#am"/><use transform="matrix(0.04938271604938272,0,0,0.04938271604938272,9.481481481481481,0)" xlink:href="#W"/><use transform="matrix(0.04938271604938272,0,0,0.04938271604938272,15.358024691358025,0)" xlink:href="#P"/><use transform="matrix(0.04938271604938272,0,0,0.04938271604938272,25.23456790123457,0)" xlink:href="#S"/><use transform="matrix(0.04938271604938272,0,0,0.04938271604938272,35.111111111111114,0)" xlink:href="#Z"/><use transform="matrix(0.04938271604938272,0,0,0.04938271604938272,44,0)" xlink:href="#P"/><use transform="matrix(0.04938271604938272,0,0,0.04938271604938272,53.876543209876544,0)" xlink:href="#aa"/><use transform="matrix(0.04938271604938272,0,0,0.04938271604938272,62.76543209876542,0)" xlink:href="#O"/><use transform="matrix(0.04938271604938272,0,0,0.04938271604938272,67.7037037037037,0)" xlink:href="#R"/><use transform="matrix(0.04938271604938272,0,0,0.04938271604938272,71.60493827160494,0)" xlink:href="#V"/><use transform="matrix(0.04938271604938272,0,0,0.04938271604938272,81.48148148148148,0)" xlink:href="#S"/><path fill="#333" d="M-.9 1.23h93.15v1.3H-.9z"/></g><path fill="#333" d="M20-101c0-91 52-143 145-150 126-9 127 168 53 223-23 17-55 32-93 32C57 4 20-33 20-101zm216-33c5-57-18-91-73-90-77 1-110 51-110 125 0 49 23 75 73 75 72-1 104-45 110-110" id="an"/><g id="j"><use transform="matrix(0.04938271604938272,0,0,0.04938271604938272,0,0)" xlink:href="#an"/><use transform="matrix(0.04938271604938272,0,0,0.04938271604938272,13.827160493827162,0)" xlink:href="#X"/><use transform="matrix(0.04938271604938272,0,0,0.04938271604938272,23.703703703703706,0)" xlink:href="#Y"/><use transform="matrix(0.04938271604938272,0,0,0.04938271604938272,33.580246913580254,0)" xlink:href="#W"/><use transform="matrix(0.04938271604938272,0,0,0.04938271604938272,39.4567901234568,0)" xlink:href="#P"/><use transform="matrix(0.04938271604938272,0,0,0.04938271604938272,49.33333333333334,0)" xlink:href="#O"/><use transform="matrix(0.04938271604938272,0,0,0.04938271604938272,54.27160493827161,0)" xlink:href="#R"/><use transform="matrix(0.04938271604938272,0,0,0.04938271604938272,58.17283950617284,0)" xlink:href="#V"/><use transform="matrix(0.04938271604938272,0,0,0.04938271604938272,68.0493827160494,0)" xlink:href="#S"/><path fill="#333" d="M-.9 1.23h79.7v1.3H-.9z"/></g><path fill="#333" d="M11 0l48-248h184l-5 28H87l-15 79h140l-5 27H67L50-27h158l-5 27H11" id="ao"/><path fill="#333" d="M89 0H52L20-190h33L74-25l89-165h34" id="ap"/><g id="k"><use transform="matrix(0.04938271604938272,0,0,0.04938271604938272,0,0)" xlink:href="#ao"/><use transform="matrix(0.04938271604938272,0,0,0.04938271604938272,11.851851851851853,0)" xlink:href="#ap"/><use transform="matrix(0.04938271604938272,0,0,0.04938271604938272,20.74074074074074,0)" xlink:href="#Y"/><use transform="matrix(0.04938271604938272,0,0,0.04938271604938272,30.617283950617285,0)" xlink:href="#S"/><use transform="matrix(0.04938271604938272,0,0,0.04938271604938272,40.49382716049383,0)" xlink:href="#O"/><path fill="#333" d="M-.9 1.23h52.16v1.3H-.9z"/></g><path fill="#333" d="M133-28C103 26-5 8 13-77c13-62 24-115 90-117 29-1 46 15 56 35l19-102h32L160 0h-30zM45-64c-2 27 10 43 35 43 54-1 69-50 69-103 0-29-15-46-42-46-53-1-58 58-62 106" id="aq"/><g id="l"><use transform="matrix(0.04938271604938272,0,0,0.04938271604938272,0,0)" xlink:href="#aq"/><use transform="matrix(0.04938271604938272,0,0,0.04938271604938272,9.876543209876544,0)" xlink:href="#R"/><use transform="matrix(0.04938271604938272,0,0,0.04938271604938272,13.777777777777779,0)" xlink:href="#Z"/><use transform="matrix(0.04938271604938272,0,0,0.04938271604938272,22.666666666666668,0)" xlink:href="#X"/><use transform="matrix(0.04938271604938272,0,0,0.04938271604938272,32.543209876543216,0)" xlink:href="#P"/><use transform="matrix(0.04938271604938272,0,0,0.04938271604938272,42.41975308641976,0)" xlink:href="#O"/><use transform="matrix(0.04938271604938272,0,0,0.04938271604938272,47.35802469135803,0)" xlink:href="#aa"/><use transform="matrix(0.04938271604938272,0,0,0.04938271604938272,56.24691358024693,0)" xlink:href="#ad"/><use transform="matrix(0.04938271604938272,0,0,0.04938271604938272,66.12345679012347,0)" xlink:href="#Y"/><use transform="matrix(0.04938271604938272,0,0,0.04938271604938272,76.00000000000001,0)" xlink:href="#W"/><path fill="#333" d="M-.9 1.23h83.66v1.3H-.9z"/></g><path fill="#333" d="M125-24c46 0 70-25 89-51l25 16C214-24 183 4 123 4 8 4-5-146 60-208c32-50 158-61 191-5 5 7 9 14 11 22l-32 10c-9-28-33-43-69-43-74 0-108 51-108 125 0 46 24 75 72 75" id="ar"/><path fill="#333" d="M248-111c6-24 9-61-24-58-72 9-57 108-77 169h-31l26-142c3-37-50-30-64-10C52-115 50-51 37 0H6l36-190h30c-1 10-6 24-4 32 13-43 101-52 105 5 13-22 29-41 61-41 90 0 28 129 23 194h-31" id="as"/><g id="m"><use transform="matrix(0.04938271604938272,0,0,0.04938271604938272,0,0)" xlink:href="#ar"/><use transform="matrix(0.04938271604938272,0,0,0.04938271604938272,12.790123456790125,0)" xlink:href="#V"/><use transform="matrix(0.04938271604938272,0,0,0.04938271604938272,22.66666666666667,0)" xlink:href="#as"/><use transform="matrix(0.04938271604938272,0,0,0.04938271604938272,37.4320987654321,0)" xlink:href="#as"/><use transform="matrix(0.04938271604938272,0,0,0.04938271604938272,52.19753086419754,0)" xlink:href="#R"/><use transform="matrix(0.04938271604938272,0,0,0.04938271604938272,56.09876543209877,0)" xlink:href="#O"/></g><g id="n"><use transform="matrix(0.05,0,0,0.05,0,0)" xlink:href="#af"/><use transform="matrix(0.05,0,0,0.05,12,0)" xlink:href="#ag"/><use transform="matrix(0.05,0,0,0.05,17,0)" xlink:href="#ah"/><use transform="matrix(0.05,0,0,0.05,27,0)" xlink:href="#ai"/><use transform="matrix(0.05,0,0,0.05,37,0)" xlink:href="#aj"/></g><g id="o"><use transform="matrix(0.04938271604938272,0,0,0.04938271604938272,0,0)" xlink:href="#N"/><use transform="matrix(0.04938271604938272,0,0,0.04938271604938272,11.851851851851853,0)" xlink:href="#O"/><use transform="matrix(0.04938271604938272,0,0,0.04938271604938272,16.790123456790127,0)" xlink:href="#P"/><use transform="matrix(0.04938271604938272,0,0,0.04938271604938272,26.666666666666668,0)" xlink:href="#Q"/><use transform="matrix(0.04938271604938272,0,0,0.04938271604938272,36.543209876543216,0)" xlink:href="#Y"/></g><path fill="#a9afb8" d="M136-208V0H84v-208H4v-40h212v40h-80" id="at"/><path fill="#a9afb8" d="M135-150c-39-12-60 13-60 57V0H25l-1-190h47c2 13-1 29 3 40 6-28 27-53 61-41v41" id="au"/><path fill="#a9afb8" d="M133-34C117-15 103 5 69 4 32 3 11-16 11-54c-1-60 55-63 116-61 1-26-3-47-28-47-18 1-26 9-28 27l-52-2c7-38 36-58 82-57s74 22 75 68l1 82c-1 14 12 18 25 15v27c-30 8-71 5-69-32zm-48 3c29 0 43-24 42-57-32 0-66-3-65 30 0 17 8 27 23 27" id="av"/><path fill="#a9afb8" d="M135-194c87-1 58 113 63 194h-50c-7-57 23-157-34-157-59 0-34 97-39 157H25l-1-190h47c2 12-1 28 3 38 12-26 28-41 61-42" id="aw"/><path fill="#a9afb8" d="M137-138c1-29-70-34-71-4 15 46 118 7 119 86 1 83-164 76-172 9l43-7c4 19 20 25 44 25 33 8 57-30 24-41C81-84 22-81 20-136c-2-80 154-74 161-7" id="ax"/><path fill="#a9afb8" d="M190-63c-7 42-38 67-86 67-59 0-84-38-90-98-12-110 154-137 174-36l-49 2c-2-19-15-32-35-32-30 0-35 28-38 64-6 74 65 87 74 30" id="ay"/><path fill="#a9afb8" d="M115-3C79 11 28 4 28-45v-112H4v-33h27l15-45h31v45h36v33H77v99c-1 23 16 31 38 25v30" id="az"/><path fill="#a9afb8" d="M25-224v-37h50v37H25zM25 0v-190h50V0H25" id="aA"/><path fill="#a9afb8" d="M110-194c64 0 96 36 96 99 0 64-35 99-97 99-61 0-95-36-95-99 0-62 34-99 96-99zm-1 164c35 0 45-28 45-65 0-40-10-65-43-65-34 0-45 26-45 65 0 36 10 65 43 65" id="aB"/><g id="p"><use transform="matrix(0.0728395061728395,0,0,0.0728395061728395,0,0)" xlink:href="#at"/><use transform="matrix(0.0728395061728395,0,0,0.0728395061728395,14.495061728395061,0)" xlink:href="#au"/><use transform="matrix(0.0728395061728395,0,0,0.0728395061728395,24.69259259259259,0)" xlink:href="#av"/><use transform="matrix(0.0728395061728395,0,0,0.0728395061728395,39.26049382716049,0)" xlink:href="#aw"/><use transform="matrix(0.0728395061728395,0,0,0.0728395061728395,55.21234567901234,0)" xlink:href="#ax"/><use transform="matrix(0.0728395061728395,0,0,0.0728395061728395,69.78024691358024,0)" xlink:href="#av"/><use transform="matrix(0.0728395061728395,0,0,0.0728395061728395,84.34814814814814,0)" xlink:href="#ay"/><use transform="matrix(0.0728395061728395,0,0,0.0728395061728395,98.91604938271605,0)" xlink:href="#az"/><use transform="matrix(0.0728395061728395,0,0,0.0728395061728395,107.58395061728395,0)" xlink:href="#aA"/><use transform="matrix(0.0728395061728395,0,0,0.0728395061728395,114.8679012345679,0)" xlink:href="#aB"/><use transform="matrix(0.0728395061728395,0,0,0.0728395061728395,130.81975308641975,0)" xlink:href="#aw"/></g><path fill="#a9afb8" d="M220-157c-53 9-28 100-34 157h-49v-107c1-27-5-49-29-50C55-147 81-57 75 0H25l-1-190h47c2 12-1 28 3 38 10-53 101-56 108 0 13-22 24-43 59-42 82 1 51 116 57 194h-49v-107c-1-25-5-48-29-50" id="aC"/><g id="q"><use transform="matrix(0.0728395061728395,0,0,0.0728395061728395,0,0)" xlink:href="#ay"/><use transform="matrix(0.0728395061728395,0,0,0.0728395061728395,14.5679012345679,0)" xlink:href="#aB"/><use transform="matrix(0.0728395061728395,0,0,0.0728395061728395,30.51975308641975,0)" xlink:href="#aC"/><use transform="matrix(0.0728395061728395,0,0,0.0728395061728395,53.82839506172839,0)" xlink:href="#aC"/><use transform="matrix(0.0728395061728395,0,0,0.0728395061728395,77.13703703703703,0)" xlink:href="#aA"/><use transform="matrix(0.0728395061728395,0,0,0.0728395061728395,84.42098765432098,0)" xlink:href="#az"/></g><path fill="#333" d="M114-163C36-179 61-72 57 0H25l-1-190h30c1 12-1 29 2 39 6-27 23-49 58-41v29" id="aD"/><path fill="#333" d="M135-143c-3-34-86-38-87 0 15 53 115 12 119 90S17 21 10-45l28-5c4 36 97 45 98 0-10-56-113-15-118-90-4-57 82-63 122-42 12 7 21 19 24 35" id="aE"/><path fill="#333" d="M84 4C-5 8 30-112 23-190h32v120c0 31 7 50 39 49 72-2 45-101 50-169h31l1 190h-30c-1-10 1-25-2-33-11 22-28 36-60 37" id="aF"/><path fill="#333" d="M24 0v-261h32V0H24" id="aG"/><g id="r"><use transform="matrix(0.05,0,0,0.05,0,0)" xlink:href="#aD"/><use transform="matrix(0.05,0,0,0.05,5.95,0)" xlink:href="#aj"/><use transform="matrix(0.05,0,0,0.05,15.949999999999998,0)" xlink:href="#aE"/><use transform="matrix(0.05,0,0,0.05,24.95,0)" xlink:href="#aF"/><use transform="matrix(0.05,0,0,0.05,34.95,0)" xlink:href="#aG"/><use transform="matrix(0.05,0,0,0.05,38.900000000000006,0)" xlink:href="#ag"/></g><path fill="#333" d="M24-231v-30h32v30H24zM24 0v-190h32V0H24" id="aH"/><g id="s"><use transform="matrix(0.05,0,0,0.05,0,0)" xlink:href="#af"/><use transform="matrix(0.05,0,0,0.05,12,0)" xlink:href="#ag"/><use transform="matrix(0.05,0,0,0.05,17,0)" xlink:href="#ah"/><use transform="matrix(0.05,0,0,0.05,27,0)" xlink:href="#ai"/><use transform="matrix(0.05,0,0,0.05,37,0)" xlink:href="#aH"/><use transform="matrix(0.05,0,0,0.05,40.95,0)" xlink:href="#al"/><use transform="matrix(0.05,0,0,0.05,50.95,0)" xlink:href="#ai"/></g><path fill="#333" d="M33 0v-248h34V0H33" id="aI"/><path fill="#333" d="M100-194c62-1 85 37 85 99 1 63-27 99-86 99S16-35 15-95c0-66 28-99 85-99zM99-20c44 1 53-31 53-75 0-43-8-75-51-75s-53 32-53 75 10 74 51 75" id="aJ"/><path fill="#333" d="M96-169c-40 0-48 33-48 73s9 75 48 75c24 0 41-14 43-38l32 2c-6 37-31 61-74 61-59 0-76-41-82-99-10-93 101-131 147-64 4 7 5 14 7 22l-32 3c-4-21-16-35-41-35" id="aK"/><g id="t"><use transform="matrix(0.05,0,0,0.05,0,0)" xlink:href="#aI"/><use transform="matrix(0.05,0,0,0.05,5,0)" xlink:href="#al"/><use transform="matrix(0.05,0,0,0.05,15,0)" xlink:href="#ak"/><use transform="matrix(0.05,0,0,0.05,24,0)" xlink:href="#aJ"/><use transform="matrix(0.05,0,0,0.05,34,0)" xlink:href="#aK"/><use transform="matrix(0.05,0,0,0.05,43,0)" xlink:href="#ah"/><use transform="matrix(0.05,0,0,0.05,53,0)" xlink:href="#ag"/><use transform="matrix(0.05,0,0,0.05,58,0)" xlink:href="#aH"/><use transform="matrix(0.05,0,0,0.05,61.95,0)" xlink:href="#aJ"/><use transform="matrix(0.05,0,0,0.05,71.95,0)" xlink:href="#al"/></g><g id="u"><use transform="matrix(0.05,0,0,0.05,0,0)" xlink:href="#T"/><use transform="matrix(0.05,0,0,0.05,5,0)" xlink:href="#U"/><use transform="matrix(0.05,0,0,0.05,15.950000000000001,0)" xlink:href="#V"/><use transform="matrix(0.05,0,0,0.05,25.950000000000003,0)" xlink:href="#W"/></g><path fill="#333" d="M133-28C103 26-5 8 13-77c13-62 24-115 90-117 29-1 46 15 56 35 2-12 6-24 8-34h31L144 75h-31zM45-64c-2 27 10 43 35 43 54-1 69-50 69-103 0-29-15-46-42-46-53-1-58 58-62 106" id="aL"/><path fill="#333" d="M67 3c-93-2-31-127-26-193h32L48-50c-3 39 53 32 70 12 30-34 30-101 43-152h32L157 0h-30c1-10 6-24 4-33-14 20-29 37-64 36" id="aM"/><g id="v"><use transform="matrix(0.05,0,0,0.05,0,0)" xlink:href="#W"/><use transform="matrix(0.05,0,0,0.05,5.95,0)" xlink:href="#Y"/><use transform="matrix(0.05,0,0,0.05,15.949999999999998,0)" xlink:href="#aL"/><use transform="matrix(0.05,0,0,0.05,25.950000000000003,0)" xlink:href="#aM"/><use transform="matrix(0.05,0,0,0.05,35.95,0)" xlink:href="#R"/><use transform="matrix(0.05,0,0,0.05,39.900000000000006,0)" xlink:href="#W"/><use transform="matrix(0.05,0,0,0.05,45.85000000000001,0)" xlink:href="#Y"/><use transform="matrix(0.05,0,0,0.05,55.85,0)" xlink:href="#aq"/></g><g id="w"><use transform="matrix(0.05,0,0,0.05,0,0)" xlink:href="#V"/><use transform="matrix(0.05,0,0,0.05,10,0)" xlink:href="#X"/><use transform="matrix(0.05,0,0,0.05,20,0)" xlink:href="#Y"/><use transform="matrix(0.05,0,0,0.05,30,0)" xlink:href="#W"/><use transform="matrix(0.05,0,0,0.05,35.95,0)" xlink:href="#P"/><use transform="matrix(0.05,0,0,0.05,45.95,0)" xlink:href="#O"/><use transform="matrix(0.05,0,0,0.05,50.95,0)" xlink:href="#R"/><use transform="matrix(0.05,0,0,0.05,54.900000000000006,0)" xlink:href="#V"/><use transform="matrix(0.05,0,0,0.05,64.9,0)" xlink:href="#S"/><use transform="matrix(0.05,0,0,0.05,74.9,0)" xlink:href="#Z"/></g><g id="x"><use transform="matrix(0.05,0,0,0.05,0,0)" xlink:href="#R"/><use transform="matrix(0.05,0,0,0.05,3.95,0)" xlink:href="#S"/></g><g id="y"><use transform="matrix(0.05,0,0,0.05,0,0)" xlink:href="#Z"/><use transform="matrix(0.05,0,0,0.05,9,0)" xlink:href="#O"/><use transform="matrix(0.05,0,0,0.05,14,0)" xlink:href="#P"/><use transform="matrix(0.05,0,0,0.05,24,0)" xlink:href="#Q"/><use transform="matrix(0.05,0,0,0.05,34,0)" xlink:href="#R"/><use transform="matrix(0.05,0,0,0.05,37.95,0)" xlink:href="#S"/><use transform="matrix(0.05,0,0,0.05,47.95,0)" xlink:href="#Q"/></g><path fill="#333" d="M6 0l50-261h32L37 0H6" id="aN"/><g id="z"><use transform="matrix(0.05,0,0,0.05,0,0)" xlink:href="#W"/><use transform="matrix(0.05,0,0,0.05,5.95,0)" xlink:href="#Y"/><use transform="matrix(0.05,0,0,0.05,15.949999999999998,0)" xlink:href="#Z"/><use transform="matrix(0.05,0,0,0.05,24.95,0)" xlink:href="#aM"/><use transform="matrix(0.05,0,0,0.05,34.95,0)" xlink:href="#aN"/><use transform="matrix(0.05,0,0,0.05,38.900000000000006,0)" xlink:href="#O"/><use transform="matrix(0.05,0,0,0.05,43.900000000000006,0)" xlink:href="#ab"/></g><path fill="#333" d="M14 0l48-248h34L48 0H14" id="aO"/><path fill="#333" d="M127 0L80-88 50-66 37 0H6l51-261h31L57-100l99-90h39l-93 82L161 0h-34" id="aP"/><g id="A"><use transform="matrix(0.04938271604938272,0,0,0.04938271604938272,0,0)" xlink:href="#aO"/><use transform="matrix(0.04938271604938272,0,0,0.04938271604938272,4.938271604938272,0)" xlink:href="#S"/><use transform="matrix(0.04938271604938272,0,0,0.04938271604938272,14.814814814814817,0)" xlink:href="#ap"/><use transform="matrix(0.04938271604938272,0,0,0.04938271604938272,23.703703703703706,0)" xlink:href="#V"/><use transform="matrix(0.04938271604938272,0,0,0.04938271604938272,33.580246913580254,0)" xlink:href="#aP"/><use transform="matrix(0.04938271604938272,0,0,0.04938271604938272,42.46913580246914,0)" xlink:href="#Y"/></g><g id="B"><use transform="matrix(0.05,0,0,0.05,0,0)" xlink:href="#aI"/><use transform="matrix(0.05,0,0,0.05,5,0)" xlink:href="#al"/><use transform="matrix(0.05,0,0,0.05,15,0)" xlink:href="#ak"/><use transform="matrix(0.05,0,0,0.05,24,0)" xlink:href="#aJ"/><use transform="matrix(0.05,0,0,0.05,34,0)" xlink:href="#aK"/><use transform="matrix(0.05,0,0,0.05,43,0)" xlink:href="#ah"/><use transform="matrix(0.05,0,0,0.05,53,0)" xlink:href="#ag"/><use transform="matrix(0.05,0,0,0.05,58,0)" xlink:href="#aH"/><use transform="matrix(0.05,0,0,0.05,61.95,0)" xlink:href="#aJ"/><use transform="matrix(0.05,0,0,0.05,71.95,0)" xlink:href="#al"/></g><g id="C"><use transform="matrix(0.04938271604938272,0,0,0.04938271604938272,0,0)" xlink:href="#N"/><use transform="matrix(0.04938271604938272,0,0,0.04938271604938272,11.851851851851853,0)" xlink:href="#O"/><use transform="matrix(0.04938271604938272,0,0,0.04938271604938272,16.790123456790127,0)" xlink:href="#P"/><use transform="matrix(0.04938271604938272,0,0,0.04938271604938272,26.666666666666668,0)" xlink:href="#Q"/><use transform="matrix(0.04938271604938272,0,0,0.04938271604938272,36.543209876543216,0)" xlink:href="#Y"/><path fill="#333" d="M-.9 1.23h48.2v1.3H-.9z"/></g><g id="D"><use transform="matrix(0.04938271604938272,0,0,0.04938271604938272,0,0)" xlink:href="#aO"/><use transform="matrix(0.04938271604938272,0,0,0.04938271604938272,4.938271604938272,0)" xlink:href="#S"/><use transform="matrix(0.04938271604938272,0,0,0.04938271604938272,14.814814814814817,0)" xlink:href="#ap"/><use transform="matrix(0.04938271604938272,0,0,0.04938271604938272,23.703703703703706,0)" xlink:href="#V"/><use transform="matrix(0.04938271604938272,0,0,0.04938271604938272,33.580246913580254,0)" xlink:href="#aa"/><use transform="matrix(0.04938271604938272,0,0,0.04938271604938272,42.46913580246914,0)" xlink:href="#P"/><use transform="matrix(0.04938271604938272,0,0,0.04938271604938272,52.345679012345684,0)" xlink:href="#O"/><use transform="matrix(0.04938271604938272,0,0,0.04938271604938272,57.283950617283956,0)" xlink:href="#R"/><use transform="matrix(0.04938271604938272,0,0,0.04938271604938272,61.18518518518519,0)" xlink:href="#V"/><use transform="matrix(0.04938271604938272,0,0,0.04938271604938272,71.06172839506173,0)" xlink:href="#S"/><path fill="#333" d="M-.9 1.23h82.73v1.3H-.9z"/></g><g id="E"><use transform="matrix(0.05,0,0,0.05,0,0)" xlink:href="#af"/><use transform="matrix(0.05,0,0,0.05,12,0)" xlink:href="#ag"/><use transform="matrix(0.05,0,0,0.05,17,0)" xlink:href="#ah"/><use transform="matrix(0.05,0,0,0.05,27,0)" xlink:href="#ai"/><use transform="matrix(0.05,0,0,0.05,37,0)" xlink:href="#aj"/></g><g id="F"><use transform="matrix(0.05,0,0,0.05,0,0)" xlink:href="#aD"/><use transform="matrix(0.05,0,0,0.05,5.95,0)" xlink:href="#aj"/><use transform="matrix(0.05,0,0,0.05,15.949999999999998,0)" xlink:href="#aE"/><use transform="matrix(0.05,0,0,0.05,24.95,0)" xlink:href="#aF"/><use transform="matrix(0.05,0,0,0.05,34.95,0)" xlink:href="#aG"/><use transform="matrix(0.05,0,0,0.05,38.900000000000006,0)" xlink:href="#ag"/></g><g id="G"><use transform="matrix(0.05,0,0,0.05,0,0)" xlink:href="#aI"/><use transform="matrix(0.05,0,0,0.05,5,0)" xlink:href="#al"/><use transform="matrix(0.05,0,0,0.05,15,0)" xlink:href="#ak"/><use transform="matrix(0.05,0,0,0.05,24,0)" xlink:href="#aJ"/><use transform="matrix(0.05,0,0,0.05,34,0)" xlink:href="#aK"/><use transform="matrix(0.05,0,0,0.05,43,0)" xlink:href="#ah"/><use transform="matrix(0.05,0,0,0.05,53,0)" xlink:href="#ag"/><use transform="matrix(0.05,0,0,0.05,58,0)" xlink:href="#aH"/><use transform="matrix(0.05,0,0,0.05,61.95,0)" xlink:href="#aJ"/><use transform="matrix(0.05,0,0,0.05,71.95,0)" xlink:href="#al"/></g><path fill="#333" d="M212-179c-10-28-35-45-73-45-59 0-87 40-87 99 0 60 29 101 89 101 43 0 62-24 78-52l27 14C228-24 195 4 139 4 59 4 22-46 18-125c-6-104 99-153 187-111 19 9 31 26 39 46" id="aQ"/><path fill="#333" d="M210-169c-67 3-38 105-44 169h-31v-121c0-29-5-50-35-48C34-165 62-65 56 0H25l-1-190h30c1 10-1 24 2 32 10-44 99-50 107 0 11-21 27-35 58-36 85-2 47 119 55 194h-31v-121c0-29-5-49-35-48" id="aR"/><g id="H"><use transform="matrix(0.05,0,0,0.05,0,0)" xlink:href="#aQ"/><use transform="matrix(0.05,0,0,0.05,12.950000000000001,0)" xlink:href="#aJ"/><use transform="matrix(0.05,0,0,0.05,22.950000000000003,0)" xlink:href="#aR"/><use transform="matrix(0.05,0,0,0.05,37.900000000000006,0)" xlink:href="#aR"/><use transform="matrix(0.05,0,0,0.05,52.85,0)" xlink:href="#aH"/><use transform="matrix(0.05,0,0,0.05,56.80000000000001,0)" xlink:href="#ag"/></g><g id="I"><use transform="matrix(0.05,0,0,0.05,0,0)" xlink:href="#aQ"/><use transform="matrix(0.05,0,0,0.05,12.950000000000001,0)" xlink:href="#aJ"/><use transform="matrix(0.05,0,0,0.05,22.950000000000003,0)" xlink:href="#aR"/><use transform="matrix(0.05,0,0,0.05,37.900000000000006,0)" xlink:href="#aR"/><use transform="matrix(0.05,0,0,0.05,52.85,0)" xlink:href="#aH"/><use transform="matrix(0.05,0,0,0.05,56.80000000000001,0)" xlink:href="#ag"/></g><g id="J"><use transform="matrix(0.05,0,0,0.05,0,0)" xlink:href="#af"/><use transform="matrix(0.05,0,0,0.05,12,0)" xlink:href="#ag"/><use transform="matrix(0.05,0,0,0.05,17,0)" xlink:href="#ah"/><use transform="matrix(0.05,0,0,0.05,27,0)" xlink:href="#ai"/><use transform="matrix(0.05,0,0,0.05,37,0)" xlink:href="#aH"/><use transform="matrix(0.05,0,0,0.05,40.95,0)" xlink:href="#al"/><use transform="matrix(0.05,0,0,0.05,50.95,0)" xlink:href="#ai"/></g><g id="K"><use transform="matrix(0.05,0,0,0.05,0,0)" xlink:href="#aD"/><use transform="matrix(0.05,0,0,0.05,5.95,0)" xlink:href="#aj"/><use transform="matrix(0.05,0,0,0.05,15.949999999999998,0)" xlink:href="#aE"/><use transform="matrix(0.05,0,0,0.05,24.95,0)" xlink:href="#aF"/><use transform="matrix(0.05,0,0,0.05,34.95,0)" xlink:href="#aG"/><use transform="matrix(0.05,0,0,0.05,38.900000000000006,0)" xlink:href="#ag"/></g><g id="L"><use transform="matrix(0.05,0,0,0.05,0,0)" xlink:href="#aI"/><use transform="matrix(0.05,0,0,0.05,5,0)" xlink:href="#al"/><use transform="matrix(0.05,0,0,0.05,15,0)" xlink:href="#ak"/><use transform="matrix(0.05,0,0,0.05,24,0)" xlink:href="#aJ"/><use transform="matrix(0.05,0,0,0.05,34,0)" xlink:href="#aK"/><use transform="matrix(0.05,0,0,0.05,43,0)" xlink:href="#ah"/><use transform="matrix(0.05,0,0,0.05,53,0)" xlink:href="#ag"/><use transform="matrix(0.05,0,0,0.05,58,0)" xlink:href="#aH"/><use transform="matrix(0.05,0,0,0.05,61.95,0)" xlink:href="#aJ"/><use transform="matrix(0.05,0,0,0.05,71.95,0)" xlink:href="#al"/></g><g id="M"><use transform="matrix(0.05,0,0,0.05,0,0)" xlink:href="#aD"/><use transform="matrix(0.05,0,0,0.05,5.95,0)" xlink:href="#aj"/><use transform="matrix(0.05,0,0,0.05,15.949999999999998,0)" xlink:href="#aE"/><use transform="matrix(0.05,0,0,0.05,24.95,0)" xlink:href="#aF"/><use transform="matrix(0.05,0,0,0.05,34.95,0)" xlink:href="#aG"/><use transform="matrix(0.05,0,0,0.05,38.900000000000006,0)" xlink:href="#ag"/><use transform="matrix(0.05,0,0,0.05,43.900000000000006,0)" xlink:href="#aE"/></g></defs></g></svg>