<svg xmlns="http://www.w3.org/2000/svg" xmlns:xlink="http://www.w3.org/1999/xlink" xmlns:lucid="lucid" width="1723.64" height="1098.87"><g transform="translate(0 0)" lucid:page-tab-id="0_0"><path d="M0 0h1723.64v1098.87H0z" fill="#fff"/><path d="M497.7 258.34v9.9m0 9.9v19.8m0 9.9v19.78m0 9.9v19.8m0 9.9V387m0 9.88v19.8m0 9.9v19.8m0 9.88v19.8m0 9.9v19.8m0 9.9v19.78m0 9.9v19.8m0 9.9v19.78m0 9.9v19.8m0 9.9v19.78m0 9.9v19.8m0 9.9v19.8m0 9.88v19.8m0 9.9V773m0 9.88v19.8m0 9.9v19.8m0 9.9v19.78m0 9.9v19.8m0 9.9v19.78m0 9.9v19.8m0 9.9v19.78m0 9.9v19.8m0 9.9v19.8m0 9.88v9.9" stroke="#333" fill="none"/><path d="M498.2 258.36h-1v-.52h1zM498.2 1060.5h-1v-.5h1z" fill="#333"/><path d="M478.77 328.57c0-4.4 3.58-8 8-8h24c4.42 0 8 3.6 8 8V1052c0 4.42-3.58 8-8 8h-24c-4.42 0-8-3.58-8-8z" stroke="#f2f2f2" fill="#ced4db"/><path d="M858.53 258.34v9.9m0 9.9v19.77m0 9.9v19.78m0 9.9v19.77m0 9.9v19.78m0 9.9v19.77m0 9.9v19.77m0 9.9v19.77m0 9.9v19.77m0 9.9v19.8m0 9.88v19.78m0 9.9v19.77m0 9.9v19.77m0 9.9v19.78m0 9.9v19.77m0 9.9v19.77m0 9.9v19.77m0 9.9v19.77m0 9.9v19.77m0 9.9V832m0 9.9v19.78m0 9.9v19.78m0 9.9v19.77m0 9.9v19.77m0 9.9v19.77m0 9.9v19.78m0 9.9v19.77m0 9.9v9.88" stroke="#333" fill="none"/><path d="M859.03 258.36h-1v-.52h1z" fill="#333"/><path d="M858.53 1059.5v.5M1219.36 258.34v9.9m0 9.9v19.77m0 9.9v19.78m0 9.9v19.77m0 9.9v19.78m0 9.9v19.77m0 9.9v19.77m0 9.9v19.77m0 9.9v19.77m0 9.9v19.8m0 9.88v19.78m0 9.9v19.77m0 9.9v19.77m0 9.9v19.78m0 9.9v19.77m0 9.9v19.77m0 9.9v19.77m0 9.9v19.77m0 9.9v19.77m0 9.9V832m0 9.9v19.78m0 9.9v19.78m0 9.9v19.77m0 9.9v19.77m0 9.9v19.77m0 9.9v19.78m0 9.9v19.77m0 9.9v9.88" stroke="#333" fill="none"/><path d="M1219.86 258.36h-1v-.52h1z" fill="#333"/><path d="M1219.36 1059.5v.5" stroke="#333" fill="none"/><path d="M402.66 138.84c0-4.4 3.58-8 8-8h174.07c4.42 0 8 3.6 8 8v106c0 4.42-3.58 8-8 8H410.66c-4.42 0-8-3.58-8-8z" stroke="#3aa6dd" stroke-width="10" fill-opacity="0"/><use xlink:href="#a" transform="matrix(1,0,0,1,410.65810160792546,138.84477604333324) translate(32.83333333333333 56.55555555555555)"/><use xlink:href="#b" transform="matrix(1,0,0,1,410.65810160792546,138.84477604333324) translate(98.80864197530865 56.55555555555555)"/><path d="M763.5 138.84c0-4.4 3.57-8 8-8h174.07c4.42 0 8 3.6 8 8v106c0 4.42-3.58 8-8 8H771.5c-4.43 0-8-3.58-8-8z" stroke="#5abaa7" stroke-width="10" fill-opacity="0"/><use xlink:href="#c" transform="matrix(1,0,0,1,771.492099936145,138.84477604333324) translate(22.882716049382708 56.55555555555555)"/><use xlink:href="#b" transform="matrix(1,0,0,1,771.492099936145,138.84477604333324) translate(108.75925925925927 56.55555555555555)"/><path d="M1124.33 138.84c0-4.4 3.58-8 8-8h174.07c4.42 0 8 3.6 8 8v106c0 4.42-3.58 8-8 8h-174.07c-4.42 0-8-3.58-8-8z" stroke="#fcc438" stroke-width="10" fill-opacity="0"/><use xlink:href="#d" transform="matrix(1,0,0,1,1132.3260982643649,138.84477604333324) translate(21.37654320987653 56.55555555555555)"/><use xlink:href="#e" transform="matrix(1,0,0,1,1132.3260982643649,138.84477604333324) translate(71.74691358024691 56.55555555555555)"/><path d="M99.75 336.26C99.75 347.16 90.9 356 80 356c-10.9 0-19.75-8.83-19.75-19.74 0-10.9 8.84-19.75 19.75-19.75 10.9 0 19.75 8.85 19.75 19.76z" stroke="#333" fill="#fff"/><path d="M80 356v47.3c0 4.43 1.92 11.04 4.28 14.77L120 474.5m-40-63.2l-40 63.2m0-98.74h80" stroke="#333" fill="none"/><path d="M40 324.5c0-4.4 3.58-8 8-8h64c4.42 0 8 3.6 8 8v164c0 4.43-3.58 8-8 8H48c-4.42 0-8-3.57-8-8z" fill="none"/><path d="M81.5 406.5h380.38M81.5 406.5H78" stroke="#333" fill="none"/><path d="M476.65 406.5l-14.27 4.65v-9.27z" stroke="#333" fill="#333"/><use xlink:href="#f" transform="matrix(1,0,0,1,245.63042261475323,410.5103279856929) translate(0.005000000000002558 14.222222222222223)"/><path d="M435.45 48c0-4.42 3.58-8 8-8h836.75c4.4 0 8 3.58 8 8v25.16c0 4.4-3.6 8-8 8H443.45c-4.42 0-8-3.6-8-8z" stroke="#000" stroke-opacity="0" stroke-width="2" fill="#fff" fill-opacity="0"/><use xlink:href="#g" transform="matrix(1,0,0,1,439.4459784289347,44) translate(298.59580246913583 25.782777777777778)"/><use xlink:href="#h" transform="matrix(1,0,0,1,439.4459784289347,44) translate(452.6513580246914 25.782777777777778)"/><path d="M707.32 79.8h318.26M707.34 79.8h-1.02M1025.56 79.8h1.02" stroke="#a9afb8" stroke-width="2" fill="none"/><path d="M838.03 708c0-4.42 3.58-8 8-8h24c4.42 0 8 3.58 8 8v44c0 4.42-3.58 8-8 8h-24c-4.42 0-8-3.58-8-8z" stroke="#f2f2f2" fill="#ced4db"/><path d="M837.03 740.5h-10.6v-1h10.6zm-21.18 0h-21.2v-1h21.2zm-31.78 0H762.9v-1h21.17zm-31.78 0h-21.2v-1h21.2zm-108.58 0h-3.7v-1h3.7zm-13.24 0h-19.06v-1h19.06zm-28.6 0h-19.06v-1h19.07zm-28.6 0h-19.06v-1h19.07zm-28.6 0h-9.53v-1h9.54zm175.84 0h-7.95v-1h7.95zM837.53 740.5h-.5v-1h.5zM534.65 744.64L520.4 740l14.25-4.64z" fill="#333"/><path d="M535.15 745.32L518.77 740l16.38-5.32zM522 740l12.15 3.95v-7.9z" fill="#333"/><use xlink:href="#i" transform="matrix(1,0,0,1,643.7244881061217,729.2) translate(0.005000000000002558 14.4)"/><path d="M821.15 717.83H519.27v-1h301.88z" fill="#333"/><path d="M519.28 717.83h-.5v-1h.5zM835.9 717.33l-14.25 4.64v-9.27z" fill="#333"/><path d="M837.53 717.33l-16.38 5.33V712zm-15.38 3.95l12.14-3.95-12.15-3.94z" fill="#333"/><use xlink:href="#f" transform="matrix(1,0,0,1,644.1494881061217,692) translate(0.005000000000002558 14.222222222222223)"/><path d="M1200.1 768c0-4.42 3.58-8 8-8h24c4.4 0 8 3.58 8 8v64c0 4.42-3.6 8-8 8h-24c-4.42 0-8-3.58-8-8z" stroke="#f2f2f2" fill="#ced4db"/><path d="M1183.2 790.5H520.5v-1h662.7zM520.5 790.5h-.5v-1h.5zM1197.98 790l-14.27 4.64v-9.28z" fill="#333"/><path d="M1199.6 790l-16.4 5.32v-10.64zm-15.4 3.95l12.16-3.95-12.15-3.95z" fill="#333"/><use xlink:href="#j" transform="matrix(1,0,0,1,944.8641547704935,764.4000000000008) translate(0.0049999999999954525 14.4)"/><use xlink:href="#k" transform="matrix(1,0,0,1,944.8641547704935,764.4000000000008) translate(79.905 14.4)"/><use xlink:href="#l" transform="matrix(1,0,0,1,944.8641547704935,764.4000000000008) translate(153.755 14.4)"/><path d="M1199.1 812.5h-10.05v-1h10.04zm-20.1 0h-20.07v-1H1179zm-30.1 0h-20.1v-1h20.1zm-30.13 0h-20.1v-1h20.1zm-109.46 0h-1v-1h1zm-11.03 0H978.2v-1h20.07zm-30.12 0h-20.08v-1h20.08zm-30.12 0h-20.1v-1h20.1zm-30.13 0h-20.08v-1h20.08zm-30.12 0H857.7v-1h20.08zm-30.12 0h-20.1v-1h20.1zm-30.13 0h-20.08v-1h20.08zm-30.12 0h-20.07v-1h20.08zm-30.1 0h-20.1v-1h20.1zm-30.14 0h-20.08v-1h20.08zm-30.12 0h-20.08v-1h20.08zm-30.12 0h-20.08v-1h20.08zm-30.13 0h-20.1v-1h20.1zm-30.13 0H586.6v-1h20.07zm-30.12 0h-20.08v-1h20.08zm-30.13 0h-10.04v-1h10.04zm542.22 0h-10.48v-1h10.48z" fill="#333"/><path d="M1199.6 812.5h-.52v-1h.5zM535.88 816.64L521.62 812l14.26-4.64z" fill="#333"/><path d="M536.38 817.32L520 812l16.38-5.32zM523.24 812l12.14 3.95v-7.9z" fill="#333"/><use xlink:href="#i" transform="matrix(1,0,0,1,1009.3141547704936,801.2) translate(0.005000000000002558 14.4)"/><path d="M1580.2 258.34v9.9m0 9.9v19.77m0 9.9v19.78m0 9.9v19.77m0 9.9v19.78m0 9.9v19.77m0 9.9v19.77m0 9.9v19.77m0 9.9v19.77m0 9.9v19.8m0 9.88v19.78m0 9.9v19.77m0 9.9v19.77m0 9.9v19.78m0 9.9v19.77m0 9.9v19.77m0 9.9v19.77m0 9.9v19.77m0 9.9v19.77m0 9.9V832m0 9.9v19.78m0 9.9v19.78m0 9.9v19.77m0 9.9v19.77m0 9.9v19.77m0 9.9v19.78m0 9.9v19.77m0 9.9v9.88" stroke="#333" fill="none"/><path d="M1580.7 258.36h-1v-.52h1z" fill="#333"/><path d="M1580.2 1059.5v.5" stroke="#333" fill="none"/><path d="M1485.16 138.84c0-4.4 3.58-8 8-8h174.08c4.4 0 8 3.6 8 8v106c0 4.42-3.6 8-8 8h-174.08c-4.42 0-8-3.58-8-8z" stroke="#77818c" stroke-width="10" fill-opacity="0"/><use xlink:href="#m" transform="matrix(1,0,0,1,1493.1600965925852,138.84477604333324) translate(53.5 56.55555555555555)"/><path d="M1198.86 968c0-4.42 3.6-8 8-8h24c4.42 0 8 3.58 8 8v44c0 4.42-3.58 8-8 8h-24c-4.4 0-8-3.58-8-8z" stroke="#f2f2f2" fill="#ced4db"/><path d="M519.27 990h662.7M519.28 990h-.5" stroke="#333" fill="none"/><path d="M1196.75 990l-14.27 4.64v-9.28z" stroke="#333" fill="#333"/><use xlink:href="#j" transform="matrix(1,0,0,1,923.6834119816685,964.4000000000008) translate(0.0049999999999954525 14.4)"/><use xlink:href="#k" transform="matrix(1,0,0,1,923.6834119816685,964.4000000000008) translate(79.905 14.4)"/><use xlink:href="#n" transform="matrix(1,0,0,1,923.6834119816685,964.4000000000008) translate(153.755 14.4)"/><use xlink:href="#l" transform="matrix(1,0,0,1,923.6834119816685,964.4000000000008) translate(202.655 14.4)"/><path d="M180 506.84c0-4.4 3.58-8 8-8h84c4.42 0 8 3.6 8 8v4.93c0 3.9-2.24 9.3-5 12.07-2.76 2.77-8.17 5-12.07 5H188c-4.42 0-8-3.58-8-8z" fill="#fff"/><path d="M280 498.84v20l-10 10h-90" stroke="#333" fill="none"/><path d="M180 506.84c0-4.4 3.58-8 8-8h1464c4.42 0 8 3.6 8 8V1052c0 4.42-3.58 8-8 8H188c-4.42 0-8-3.58-8-8zM180 615h20m15 0h20m15 0h20m15 0h20m15 0h20m15 0h20m15 0h20m15 0h20m15 0h20m15 0h20m15 0h20m15 0h20m15 0h20m15 0h20m15 0h20m15 0h20m15 0h20m15 0h20m15 0h20m15 0h20m15 0h20m15 0h20m15 0h20m15 0h20m15 0h20m15 0h20m15 0h20m15 0h20m15 0h20m15 0h20m15 0h20m15 0h20m15 0h20m15 0h20m15 0h20m15 0h20m15 0h20m15 0h20m15 0h20m15 0h20m15 0h20m15 0h20m15 0h10" stroke="#333" fill="none"/><use xlink:href="#i" transform="matrix(1,0,0,1,188,498.84477604333335) translate(6.575000000000003 18.6)"/><use xlink:href="#o" transform="matrix(1,0,0,1,192,536.8447760433334) translate(11.699999999999989 18.6)"/><use xlink:href="#p" transform="matrix(1,0,0,1,192,536.8447760433334) translate(108.5 18.6)"/><use xlink:href="#q" transform="matrix(1,0,0,1,192,536.8447760433334) translate(129.45 18.6)"/><use xlink:href="#r" transform="matrix(1,0,0,1,192,536.8447760433334) translate(185.3 18.6)"/><use xlink:href="#s" transform="matrix(1,0,0,1,192,623) translate(17.525 18.6)"/><path d="M1198.86 528c0-4.42 3.6-8 8-8h24c4.42 0 8 3.58 8 8v44c0 4.42-3.58 8-8 8h-24c-4.4 0-8-3.58-8-8z" stroke="#f2f2f2" fill="#ced4db"/><path d="M519.27 550h662.7M519.28 550h-.5" stroke="#333" fill="none"/><path d="M1196.75 550l-14.27 4.64v-9.28z" stroke="#333" fill="#333"/><g><use xlink:href="#j" transform="matrix(1,0,0,1,910.1584119816686,524.4000000000007) translate(0.0049999999999954525 14.4)"/><use xlink:href="#k" transform="matrix(1,0,0,1,910.1584119816686,524.4000000000007) translate(79.905 14.4)"/><use xlink:href="#t" transform="matrix(1,0,0,1,910.1584119816686,524.4000000000007) translate(153.755 14.4)"/><use xlink:href="#l" transform="matrix(1,0,0,1,910.1584119816686,524.4000000000007) translate(220.70499999999998 14.4)"/></g><path d="M220 688c0-4.42 3.58-8 8-8h159c4.42 0 8 3.58 8 8v4.93c0 3.9-2.24 9.3-5 12.07-2.76 2.76-8.17 5-12.07 5H228c-4.42 0-8-3.58-8-8z" fill="#fff"/><path d="M395 680v20l-10 10H220" stroke="#333" fill="none"/><path d="M220 688c0-4.42 3.58-8 8-8h1384c4.42 0 8 3.58 8 8v244c0 4.42-3.58 8-8 8H228c-4.42 0-8-3.58-8-8z" stroke="#333" fill="none"/><g><use xlink:href="#u" transform="matrix(1,0,0,1,228,680) translate(8.574999999999989 18.6)"/><use xlink:href="#v" transform="matrix(1,0,0,1,228,680) translate(95.52499999999999 18.6)"/></g><g><use xlink:href="#w" transform="matrix(1,0,0,1,232,718) translate(12.149999999999991 18.6)"/><use xlink:href="#x" transform="matrix(1,0,0,1,232,718) translate(49.05 18.6)"/><use xlink:href="#y" transform="matrix(1,0,0,1,232,718) translate(93.05 18.6)"/><use xlink:href="#z" transform="matrix(1,0,0,1,232,718) translate(178.95 18.6)"/></g><path d="M1557.63 868c0-4.42 3.58-8 8-8h24c4.42 0 8 3.58 8 8v44c0 4.42-3.58 8-8 8h-24c-4.42 0-8-3.58-8-8z" stroke="#f2f2f2" fill="#ced4db"/><path d="M519.77 890h1020.98" stroke="#333" fill="none"/><path d="M519.78 890.5h-.5v-1h.5z" fill="#333"/><path d="M1555.5 890l-14.25 4.64v-9.28z" stroke="#333" fill="#333"/><g><use xlink:href="#A" transform="matrix(1,0,0,1,1405.0148223459403,864.4000000000009) translate(0.005000000000002558 14.4)"/><use xlink:href="#B" transform="matrix(1,0,0,1,1405.0148223459403,864.4000000000009) translate(58.005 14.4)"/></g><defs><path fill="#333" d="M125-24c46 0 70-25 89-51l25 16C214-24 183 4 123 4 8 4-5-146 60-208c32-50 158-61 191-5 5 7 9 14 11 22l-32 10c-9-28-33-43-69-43-74 0-108 51-108 125 0 46 24 75 72 75" id="C"/><path fill="#333" d="M30-147c31-64 166-65 159 27C183-49 158 1 86 4 9 8 1-88 30-147zM88-20c53 0 68-48 68-100 0-31-11-51-44-50-52 1-68 46-68 97 0 32 13 53 44 53" id="D"/><path fill="#333" d="M248-111c6-24 9-61-24-58-72 9-57 108-77 169h-31l26-142c3-37-50-30-64-10C52-115 50-51 37 0H6l36-190h30c-1 10-6 24-4 32 13-43 101-52 105 5 13-22 29-41 61-41 90 0 28 129 23 194h-31" id="E"/><path fill="#333" d="M50-231l6-30h32l-6 30H50zM6 0l37-190h31L37 0H6" id="F"/><path fill="#333" d="M51-54c-9 22 5 41 31 30L79-1C43 14 10-4 19-52l22-115H19l5-23h22l19-43h21l-9 43h35l-4 23H73" id="G"/><g id="a"><use transform="matrix(0.04938271604938272,0,0,0.04938271604938272,0,0)" xlink:href="#C"/><use transform="matrix(0.04938271604938272,0,0,0.04938271604938272,12.790123456790125,0)" xlink:href="#D"/><use transform="matrix(0.04938271604938272,0,0,0.04938271604938272,22.66666666666667,0)" xlink:href="#E"/><use transform="matrix(0.04938271604938272,0,0,0.04938271604938272,37.4320987654321,0)" xlink:href="#E"/><use transform="matrix(0.04938271604938272,0,0,0.04938271604938272,52.19753086419754,0)" xlink:href="#F"/><use transform="matrix(0.04938271604938272,0,0,0.04938271604938272,56.09876543209877,0)" xlink:href="#G"/><path fill="#333" d="M-.9 1.23h67.76v1.3H-.9z"/></g><path fill="#333" d="M66-151c12-25 30-51 66-40l-6 26C45-176 58-65 38 0H6l36-190h30" id="H"/><path fill="#333" d="M111-194c62-3 86 47 72 106H45c-7 38 6 69 45 68 27-1 43-14 53-32l24 11C152-15 129 4 87 4 38 3 12-23 12-71c0-70 32-119 99-123zm44 81c14-66-71-72-95-28-4 8-8 17-11 28h106" id="I"/><path fill="#333" d="M55-144c13 50 104 24 104 88C159 21 15 23 1-39l26-10c6 40 102 42 102-4-13-50-104-23-104-87 0-71 143-71 148-8l-29 4c-5-35-85-37-89 0" id="J"/><path fill="#333" d="M67 3c-93-2-31-127-26-193h32L48-50c-3 39 53 32 70 12 30-34 30-101 43-152h32L157 0h-30c1-10 6-24 4-33-14 20-29 37-64 36" id="K"/><path fill="#333" d="M6 0l50-261h32L37 0H6" id="L"/><g id="b"><use transform="matrix(0.04938271604938272,0,0,0.04938271604938272,0,0)" xlink:href="#H"/><use transform="matrix(0.04938271604938272,0,0,0.04938271604938272,5.8765432098765435,0)" xlink:href="#I"/><use transform="matrix(0.04938271604938272,0,0,0.04938271604938272,15.753086419753087,0)" xlink:href="#J"/><use transform="matrix(0.04938271604938272,0,0,0.04938271604938272,24.641975308641978,0)" xlink:href="#K"/><use transform="matrix(0.04938271604938272,0,0,0.04938271604938272,34.51851851851852,0)" xlink:href="#L"/><use transform="matrix(0.04938271604938272,0,0,0.04938271604938272,38.41975308641975,0)" xlink:href="#G"/><path fill="#333" d="M-.9 1.23h45.15v1.3H-.9z"/></g><path fill="#333" d="M14 0l48-248h34L48 0H14" id="M"/><path fill="#333" d="M67-158c22-48 132-52 116 29L158 0h-32l25-140c3-38-53-32-70-12C52-117 51-52 38 0H6l36-190h30" id="N"/><path fill="#333" d="M89 0H52L20-190h33L74-25l89-165h34" id="O"/><path fill="#333" d="M44-68c0 29 11 47 38 47 30 0 42-19 51-41l28 9C148-21 126 4 82 4 31 4 10-29 12-85c3-77 74-140 146-93 12 8 15 23 18 40l-31 5c-1-22-13-36-36-36-52 0-65 49-65 101" id="P"/><path fill="#333" d="M165-48c-4 18 1 34 23 27l-3 20c-29 8-62 0-52-35h-2C116-14 99 4 63 4 30 4 8-16 8-49c0-68 71-67 138-67 10-26 0-56-31-54-26 1-42 9-47 31l-32-5c8-67 160-71 144 15-5 28-9 54-15 81zM42-50c3 52 80 24 89-6 7-12 7-24 11-38-47 1-103-4-100 44" id="Q"/><g id="c"><use transform="matrix(0.04938271604938272,0,0,0.04938271604938272,0,0)" xlink:href="#M"/><use transform="matrix(0.04938271604938272,0,0,0.04938271604938272,4.938271604938272,0)" xlink:href="#N"/><use transform="matrix(0.04938271604938272,0,0,0.04938271604938272,14.814814814814817,0)" xlink:href="#O"/><use transform="matrix(0.04938271604938272,0,0,0.04938271604938272,23.703703703703706,0)" xlink:href="#D"/><use transform="matrix(0.04938271604938272,0,0,0.04938271604938272,33.580246913580254,0)" xlink:href="#P"/><use transform="matrix(0.04938271604938272,0,0,0.04938271604938272,42.46913580246914,0)" xlink:href="#Q"/><use transform="matrix(0.04938271604938272,0,0,0.04938271604938272,52.345679012345684,0)" xlink:href="#G"/><use transform="matrix(0.04938271604938272,0,0,0.04938271604938272,57.283950617283956,0)" xlink:href="#F"/><use transform="matrix(0.04938271604938272,0,0,0.04938271604938272,61.18518518518519,0)" xlink:href="#D"/><use transform="matrix(0.04938271604938272,0,0,0.04938271604938272,71.06172839506173,0)" xlink:href="#N"/><path fill="#333" d="M-.9 1.23h87.66v1.3H-.9z"/></g><path fill="#333" d="M11 0l48-248h184l-5 28H87l-15 79h140l-5 27H67L50-27h158l-5 27H11" id="R"/><g id="d"><use transform="matrix(0.04938271604938272,0,0,0.04938271604938272,0,0)" xlink:href="#R"/><use transform="matrix(0.04938271604938272,0,0,0.04938271604938272,11.851851851851853,0)" xlink:href="#O"/><use transform="matrix(0.04938271604938272,0,0,0.04938271604938272,20.74074074074074,0)" xlink:href="#I"/><use transform="matrix(0.04938271604938272,0,0,0.04938271604938272,30.617283950617285,0)" xlink:href="#N"/><use transform="matrix(0.04938271604938272,0,0,0.04938271604938272,40.49382716049383,0)" xlink:href="#G"/><path fill="#333" d="M-.9 1.23h52.16v1.3H-.9z"/></g><path fill="#333" d="M133-28C103 26-5 8 13-77c13-62 24-115 90-117 29-1 46 15 56 35l19-102h32L160 0h-30zM45-64c-2 27 10 43 35 43 54-1 69-50 69-103 0-29-15-46-42-46-53-1-58 58-62 106" id="S"/><path fill="#333" d="M67-162c32-53 139-36 121 50C175-51 163 2 97 4 68 4 52-11 42-31 38 6 28 39 22 75H-9l50-265h29c-1 10 0 20-3 28zm89 36c0-26-10-43-35-43-54 0-67 50-69 103-1 29 14 45 42 46 53 0 62-58 62-106" id="T"/><path fill="#333" d="M67-158c15-20 31-36 64-36 94 0 33 127 27 194h-32l25-140c3-38-53-32-70-12C52-117 51-51 37 0H6l51-261h31" id="U"/><g id="e"><use transform="matrix(0.04938271604938272,0,0,0.04938271604938272,0,0)" xlink:href="#S"/><use transform="matrix(0.04938271604938272,0,0,0.04938271604938272,9.876543209876544,0)" xlink:href="#F"/><use transform="matrix(0.04938271604938272,0,0,0.04938271604938272,13.777777777777779,0)" xlink:href="#J"/><use transform="matrix(0.04938271604938272,0,0,0.04938271604938272,22.666666666666668,0)" xlink:href="#T"/><use transform="matrix(0.04938271604938272,0,0,0.04938271604938272,32.543209876543216,0)" xlink:href="#Q"/><use transform="matrix(0.04938271604938272,0,0,0.04938271604938272,42.41975308641976,0)" xlink:href="#G"/><use transform="matrix(0.04938271604938272,0,0,0.04938271604938272,47.35802469135803,0)" xlink:href="#P"/><use transform="matrix(0.04938271604938272,0,0,0.04938271604938272,56.24691358024693,0)" xlink:href="#U"/><use transform="matrix(0.04938271604938272,0,0,0.04938271604938272,66.12345679012347,0)" xlink:href="#I"/><use transform="matrix(0.04938271604938272,0,0,0.04938271604938272,76.00000000000001,0)" xlink:href="#H"/><path fill="#333" d="M-.9 1.23h83.66v1.3H-.9z"/></g><path fill="#333" d="M249-183c0 48-29 72-75 77L221 0h-36l-43-103H65L45 0H11l48-248c83 2 190-17 190 65zm-34 3c0-55-74-39-127-41l-18 92c63-1 145 13 145-51" id="V"/><path fill="#333" d="M68-162c25-46 127-43 121 31C183-60 169 1 98 4 69 5 53-11 43-31L36 0H5l52-261h31zm88 36c2-27-9-43-34-43-55 0-70 51-70 103 0 29 15 45 43 46 52 0 58-58 61-106" id="W"/><path fill="#333" d="M127 0L80-88 50-66 37 0H6l51-261h31L57-100l99-90h39l-93 82L161 0h-34" id="X"/><g id="f"><use transform="matrix(0.04938271604938272,0,0,0.04938271604938272,0,0)" xlink:href="#V"/><use transform="matrix(0.04938271604938272,0,0,0.04938271604938272,12.790123456790125,0)" xlink:href="#D"/><use transform="matrix(0.04938271604938272,0,0,0.04938271604938272,22.66666666666667,0)" xlink:href="#L"/><use transform="matrix(0.04938271604938272,0,0,0.04938271604938272,26.567901234567902,0)" xlink:href="#L"/><use transform="matrix(0.04938271604938272,0,0,0.04938271604938272,30.46913580246914,0)" xlink:href="#W"/><use transform="matrix(0.04938271604938272,0,0,0.04938271604938272,40.345679012345684,0)" xlink:href="#Q"/><use transform="matrix(0.04938271604938272,0,0,0.04938271604938272,50.22222222222223,0)" xlink:href="#P"/><use transform="matrix(0.04938271604938272,0,0,0.04938271604938272,59.111111111111114,0)" xlink:href="#X"/></g><path fill="#a9afb8" d="M136-208V0H84v-208H4v-40h212v40h-80" id="Y"/><path fill="#a9afb8" d="M135-150c-39-12-60 13-60 57V0H25l-1-190h47c2 13-1 29 3 40 6-28 27-53 61-41v41" id="Z"/><path fill="#a9afb8" d="M133-34C117-15 103 5 69 4 32 3 11-16 11-54c-1-60 55-63 116-61 1-26-3-47-28-47-18 1-26 9-28 27l-52-2c7-38 36-58 82-57s74 22 75 68l1 82c-1 14 12 18 25 15v27c-30 8-71 5-69-32zm-48 3c29 0 43-24 42-57-32 0-66-3-65 30 0 17 8 27 23 27" id="aa"/><path fill="#a9afb8" d="M135-194c87-1 58 113 63 194h-50c-7-57 23-157-34-157-59 0-34 97-39 157H25l-1-190h47c2 12-1 28 3 38 12-26 28-41 61-42" id="ab"/><path fill="#a9afb8" d="M137-138c1-29-70-34-71-4 15 46 118 7 119 86 1 83-164 76-172 9l43-7c4 19 20 25 44 25 33 8 57-30 24-41C81-84 22-81 20-136c-2-80 154-74 161-7" id="ac"/><path fill="#a9afb8" d="M190-63c-7 42-38 67-86 67-59 0-84-38-90-98-12-110 154-137 174-36l-49 2c-2-19-15-32-35-32-30 0-35 28-38 64-6 74 65 87 74 30" id="ad"/><path fill="#a9afb8" d="M115-3C79 11 28 4 28-45v-112H4v-33h27l15-45h31v45h36v33H77v99c-1 23 16 31 38 25v30" id="ae"/><path fill="#a9afb8" d="M25-224v-37h50v37H25zM25 0v-190h50V0H25" id="af"/><path fill="#a9afb8" d="M110-194c64 0 96 36 96 99 0 64-35 99-97 99-61 0-95-36-95-99 0-62 34-99 96-99zm-1 164c35 0 45-28 45-65 0-40-10-65-43-65-34 0-45 26-45 65 0 36 10 65 43 65" id="ag"/><g id="g"><use transform="matrix(0.0728395061728395,0,0,0.0728395061728395,0,0)" xlink:href="#Y"/><use transform="matrix(0.0728395061728395,0,0,0.0728395061728395,14.495061728395061,0)" xlink:href="#Z"/><use transform="matrix(0.0728395061728395,0,0,0.0728395061728395,24.69259259259259,0)" xlink:href="#aa"/><use transform="matrix(0.0728395061728395,0,0,0.0728395061728395,39.26049382716049,0)" xlink:href="#ab"/><use transform="matrix(0.0728395061728395,0,0,0.0728395061728395,55.21234567901234,0)" xlink:href="#ac"/><use transform="matrix(0.0728395061728395,0,0,0.0728395061728395,69.78024691358024,0)" xlink:href="#aa"/><use transform="matrix(0.0728395061728395,0,0,0.0728395061728395,84.34814814814814,0)" xlink:href="#ad"/><use transform="matrix(0.0728395061728395,0,0,0.0728395061728395,98.91604938271605,0)" xlink:href="#ae"/><use transform="matrix(0.0728395061728395,0,0,0.0728395061728395,107.58395061728395,0)" xlink:href="#af"/><use transform="matrix(0.0728395061728395,0,0,0.0728395061728395,114.8679012345679,0)" xlink:href="#ag"/><use transform="matrix(0.0728395061728395,0,0,0.0728395061728395,130.81975308641975,0)" xlink:href="#ab"/></g><path fill="#a9afb8" d="M25 0v-261h50V0H25" id="ah"/><path fill="#a9afb8" d="M135-194c52 0 70 43 70 98 0 56-19 99-73 100-30 1-46-15-58-35L72 0H24l1-261h50v104c11-23 29-37 60-37zM114-30c31 0 40-27 40-66 0-37-7-63-39-63s-41 28-41 65c0 36 8 64 40 64" id="ai"/><path fill="#a9afb8" d="M147 0L96-86 75-71V0H25v-261h50v150l67-79h53l-66 74L201 0h-54" id="aj"/><g id="h"><use transform="matrix(0.0728395061728395,0,0,0.0728395061728395,0,0)" xlink:href="#Z"/><use transform="matrix(0.0728395061728395,0,0,0.0728395061728395,10.19753086419753,0)" xlink:href="#ag"/><use transform="matrix(0.0728395061728395,0,0,0.0728395061728395,26.14938271604938,0)" xlink:href="#ah"/><use transform="matrix(0.0728395061728395,0,0,0.0728395061728395,33.43333333333333,0)" xlink:href="#ah"/><use transform="matrix(0.0728395061728395,0,0,0.0728395061728395,40.717283950617286,0)" xlink:href="#ai"/><use transform="matrix(0.0728395061728395,0,0,0.0728395061728395,56.66913580246913,0)" xlink:href="#aa"/><use transform="matrix(0.0728395061728395,0,0,0.0728395061728395,71.23703703703703,0)" xlink:href="#ad"/><use transform="matrix(0.0728395061728395,0,0,0.0728395061728395,85.80493827160493,0)" xlink:href="#aj"/></g><path fill="#333" d="M233-177c-1 41-23 64-60 70L243 0h-38l-65-103H63V0H30v-248c88 3 205-21 203 71zM63-129c60-2 137 13 137-47 0-61-80-42-137-45v92" id="ak"/><path fill="#333" d="M100-194c62-1 85 37 85 99 1 63-27 99-86 99S16-35 15-95c0-66 28-99 85-99zM99-20c44 1 53-31 53-75 0-43-8-75-51-75s-53 32-53 75 10 74 51 75" id="al"/><path fill="#333" d="M24 0v-261h32V0H24" id="am"/><path fill="#333" d="M115-194c53 0 69 39 70 98 0 66-23 100-70 100C84 3 66-7 56-30L54 0H23l1-261h32v101c10-23 28-34 59-34zm-8 174c40 0 45-34 45-75 0-40-5-75-45-74-42 0-51 32-51 76 0 43 10 73 51 73" id="an"/><path fill="#333" d="M141-36C126-15 110 5 73 4 37 3 15-17 15-53c-1-64 63-63 125-63 3-35-9-54-41-54-24 1-41 7-42 31l-33-3c5-37 33-52 76-52 45 0 72 20 72 64v82c-1 20 7 32 28 27v20c-31 9-61-2-59-35zM48-53c0 20 12 33 32 33 41-3 63-29 60-74-43 2-92-5-92 41" id="ao"/><path fill="#333" d="M96-169c-40 0-48 33-48 73s9 75 48 75c24 0 41-14 43-38l32 2c-6 37-31 61-74 61-59 0-76-41-82-99-10-93 101-131 147-64 4 7 5 14 7 22l-32 3c-4-21-16-35-41-35" id="ap"/><path fill="#333" d="M143 0L79-87 56-68V0H24v-261h32v163l83-92h37l-77 82L181 0h-38" id="aq"/><g id="i"><use transform="matrix(0.05,0,0,0.05,0,0)" xlink:href="#ak"/><use transform="matrix(0.05,0,0,0.05,12.950000000000001,0)" xlink:href="#al"/><use transform="matrix(0.05,0,0,0.05,22.950000000000003,0)" xlink:href="#am"/><use transform="matrix(0.05,0,0,0.05,26.900000000000002,0)" xlink:href="#am"/><use transform="matrix(0.05,0,0,0.05,30.85,0)" xlink:href="#an"/><use transform="matrix(0.05,0,0,0.05,40.85,0)" xlink:href="#ao"/><use transform="matrix(0.05,0,0,0.05,50.85,0)" xlink:href="#ap"/><use transform="matrix(0.05,0,0,0.05,59.85,0)" xlink:href="#aq"/></g><path fill="#333" d="M248-139C247-14 144 9 11 0l48-248c105-6 190 8 189 109zm-34 0c1-70-52-87-126-82L50-27c98 7 163-21 164-112" id="ar"/><path fill="#333" d="M44-154l7-36h35l-8 36H44zM14 0l7-36h35L49 0H14" id="as"/><g id="j"><use transform="matrix(0.05,0,0,0.05,0,0)" xlink:href="#ar"/><use transform="matrix(0.05,0,0,0.05,12.950000000000001,0)" xlink:href="#F"/><use transform="matrix(0.05,0,0,0.05,16.900000000000002,0)" xlink:href="#J"/><use transform="matrix(0.05,0,0,0.05,25.900000000000002,0)" xlink:href="#T"/><use transform="matrix(0.05,0,0,0.05,35.900000000000006,0)" xlink:href="#Q"/><use transform="matrix(0.05,0,0,0.05,45.900000000000006,0)" xlink:href="#G"/><use transform="matrix(0.05,0,0,0.05,50.900000000000006,0)" xlink:href="#P"/><use transform="matrix(0.05,0,0,0.05,59.900000000000006,0)" xlink:href="#U"/><use transform="matrix(0.05,0,0,0.05,69.9,0)" xlink:href="#as"/></g><g id="k"><use transform="matrix(0.05,0,0,0.05,0,0)" xlink:href="#ak"/><use transform="matrix(0.05,0,0,0.05,12.950000000000001,0)" xlink:href="#al"/><use transform="matrix(0.05,0,0,0.05,22.950000000000003,0)" xlink:href="#am"/><use transform="matrix(0.05,0,0,0.05,26.900000000000002,0)" xlink:href="#am"/><use transform="matrix(0.05,0,0,0.05,30.85,0)" xlink:href="#an"/><use transform="matrix(0.05,0,0,0.05,40.85,0)" xlink:href="#ao"/><use transform="matrix(0.05,0,0,0.05,50.85,0)" xlink:href="#ap"/><use transform="matrix(0.05,0,0,0.05,59.85,0)" xlink:href="#aq"/></g><path fill="#333" d="M100-194c63 0 86 42 84 106H49c0 40 14 67 53 68 26 1 43-12 49-29l28 8c-11 28-37 45-77 45C44 4 14-33 15-96c1-61 26-98 85-98zm52 81c6-60-76-77-97-28-3 7-6 17-6 28h103" id="at"/><path fill="#333" d="M108 0H70L1-190h34L89-25l56-165h34" id="au"/><path fill="#333" d="M117-194c89-4 53 116 60 194h-32v-121c0-31-8-49-39-48C34-167 62-67 57 0H25l-1-190h30c1 10-1 24 2 32 11-22 29-35 61-36" id="av"/><path fill="#333" d="M59-47c-2 24 18 29 38 22v24C64 9 27 4 27-40v-127H5v-23h24l9-43h21v43h35v23H59v120" id="aw"/><g id="l"><use transform="matrix(0.05,0,0,0.05,0,0)" xlink:href="#at"/><use transform="matrix(0.05,0,0,0.05,10,0)" xlink:href="#au"/><use transform="matrix(0.05,0,0,0.05,19,0)" xlink:href="#at"/><use transform="matrix(0.05,0,0,0.05,29,0)" xlink:href="#av"/><use transform="matrix(0.05,0,0,0.05,39,0)" xlink:href="#aw"/></g><g id="m"><use transform="matrix(0.04938271604938272,0,0,0.04938271604938272,0,0)" xlink:href="#V"/><use transform="matrix(0.04938271604938272,0,0,0.04938271604938272,12.790123456790125,0)" xlink:href="#D"/><use transform="matrix(0.04938271604938272,0,0,0.04938271604938272,22.66666666666667,0)" xlink:href="#L"/><use transform="matrix(0.04938271604938272,0,0,0.04938271604938272,26.567901234567902,0)" xlink:href="#L"/><use transform="matrix(0.04938271604938272,0,0,0.04938271604938272,30.46913580246914,0)" xlink:href="#W"/><use transform="matrix(0.04938271604938272,0,0,0.04938271604938272,40.345679012345684,0)" xlink:href="#Q"/><use transform="matrix(0.04938271604938272,0,0,0.04938271604938272,50.22222222222223,0)" xlink:href="#P"/><use transform="matrix(0.04938271604938272,0,0,0.04938271604938272,59.111111111111114,0)" xlink:href="#X"/><path fill="#333" d="M-.9 1.23h69.8v1.3H-.9z"/></g><path fill="#333" d="M114-163C36-179 61-72 57 0H25l-1-190h30c1 12-1 29 2 39 6-27 23-49 58-41v29" id="ax"/><path fill="#333" d="M135-143c-3-34-86-38-87 0 15 53 115 12 119 90S17 21 10-45l28-5c4 36 97 45 98 0-10-56-113-15-118-90-4-57 82-63 122-42 12 7 21 19 24 35" id="ay"/><path fill="#333" d="M84 4C-5 8 30-112 23-190h32v120c0 31 7 50 39 49 72-2 45-101 50-169h31l1 190h-30c-1-10 1-25-2-33-11 22-28 36-60 37" id="az"/><g id="n"><use transform="matrix(0.05,0,0,0.05,0,0)" xlink:href="#ax"/><use transform="matrix(0.05,0,0,0.05,5.95,0)" xlink:href="#at"/><use transform="matrix(0.05,0,0,0.05,15.949999999999998,0)" xlink:href="#ay"/><use transform="matrix(0.05,0,0,0.05,24.95,0)" xlink:href="#az"/><use transform="matrix(0.05,0,0,0.05,34.95,0)" xlink:href="#am"/><use transform="matrix(0.05,0,0,0.05,38.900000000000006,0)" xlink:href="#aw"/></g><path fill="#333" d="M26 75v-336h71v23H56V52h41v23H26" id="aA"/><g id="o"><use transform="matrix(0.05,0,0,0.05,0,0)" xlink:href="#aA"/><use transform="matrix(0.05,0,0,0.05,5,0)" xlink:href="#C"/><use transform="matrix(0.05,0,0,0.05,17.950000000000003,0)" xlink:href="#D"/><use transform="matrix(0.05,0,0,0.05,27.950000000000003,0)" xlink:href="#E"/><use transform="matrix(0.05,0,0,0.05,42.900000000000006,0)" xlink:href="#E"/><use transform="matrix(0.05,0,0,0.05,57.85,0)" xlink:href="#F"/><use transform="matrix(0.05,0,0,0.05,61.80000000000001,0)" xlink:href="#G"/><use transform="matrix(0.05,0,0,0.05,66.80000000000001,0)" xlink:href="#G"/><use transform="matrix(0.05,0,0,0.05,71.80000000000001,0)" xlink:href="#I"/><use transform="matrix(0.05,0,0,0.05,81.80000000000001,0)" xlink:href="#S"/></g><g id="p"><use transform="matrix(0.05,0,0,0.05,0,0)" xlink:href="#al"/><use transform="matrix(0.05,0,0,0.05,10,0)" xlink:href="#ax"/></g><g id="q"><use transform="matrix(0.05,0,0,0.05,0,0)" xlink:href="#V"/><use transform="matrix(0.05,0,0,0.05,12.950000000000001,0)" xlink:href="#D"/><use transform="matrix(0.05,0,0,0.05,22.950000000000003,0)" xlink:href="#L"/><use transform="matrix(0.05,0,0,0.05,26.900000000000002,0)" xlink:href="#L"/><use transform="matrix(0.05,0,0,0.05,30.85,0)" xlink:href="#I"/><use transform="matrix(0.05,0,0,0.05,40.85,0)" xlink:href="#S"/></g><path fill="#333" d="M3 75V52h41v-290H3v-23h71V75H3" id="aB"/><g id="r"><use transform="matrix(0.05,0,0,0.05,0,0)" xlink:href="#W"/><use transform="matrix(0.05,0,0,0.05,10,0)" xlink:href="#Q"/><use transform="matrix(0.05,0,0,0.05,20,0)" xlink:href="#P"/><use transform="matrix(0.05,0,0,0.05,29,0)" xlink:href="#X"/><use transform="matrix(0.05,0,0,0.05,38,0)" xlink:href="#aB"/></g><path fill="#333" d="M30 0v-248h187v28H63v79h144v27H63v87h162V0H30" id="aC"/><g id="s"><use transform="matrix(0.05,0,0,0.05,0,0)" xlink:href="#aA"/><use transform="matrix(0.05,0,0,0.05,5,0)" xlink:href="#aC"/><use transform="matrix(0.05,0,0,0.05,17,0)" xlink:href="#am"/><use transform="matrix(0.05,0,0,0.05,20.95,0)" xlink:href="#ay"/><use transform="matrix(0.05,0,0,0.05,29.950000000000003,0)" xlink:href="#at"/><use transform="matrix(0.05,0,0,0.05,39.95,0)" xlink:href="#aB"/></g><path fill="#333" d="M85-194c31 0 48 13 60 33l-1-100h32l1 261h-30c-2-10 0-23-3-31C134-8 116 4 85 4 32 4 16-35 15-94c0-66 23-100 70-100zm9 24c-40 0-46 34-46 75 0 40 6 74 45 74 42 0 51-32 51-76 0-42-9-74-50-73" id="aD"/><g id="t"><use transform="matrix(0.05,0,0,0.05,0,0)" xlink:href="#an"/><use transform="matrix(0.05,0,0,0.05,10,0)" xlink:href="#am"/><use transform="matrix(0.05,0,0,0.05,13.949999999999998,0)" xlink:href="#al"/><use transform="matrix(0.05,0,0,0.05,23.95,0)" xlink:href="#ap"/><use transform="matrix(0.05,0,0,0.05,32.95,0)" xlink:href="#aq"/><use transform="matrix(0.05,0,0,0.05,41.95,0)" xlink:href="#at"/><use transform="matrix(0.05,0,0,0.05,51.95,0)" xlink:href="#aD"/></g><path fill="#333" d="M33 0v-248h34V0H33" id="aE"/><path fill="#333" d="M24-231v-30h32v30H24zM24 0v-190h32V0H24" id="aF"/><g id="u"><use transform="matrix(0.05,0,0,0.05,0,0)" xlink:href="#aE"/><use transform="matrix(0.05,0,0,0.05,5,0)" xlink:href="#av"/><use transform="matrix(0.05,0,0,0.05,15,0)" xlink:href="#au"/><use transform="matrix(0.05,0,0,0.05,24,0)" xlink:href="#al"/><use transform="matrix(0.05,0,0,0.05,34,0)" xlink:href="#ap"/><use transform="matrix(0.05,0,0,0.05,43,0)" xlink:href="#ao"/><use transform="matrix(0.05,0,0,0.05,53,0)" xlink:href="#aw"/><use transform="matrix(0.05,0,0,0.05,58,0)" xlink:href="#aF"/><use transform="matrix(0.05,0,0,0.05,61.95,0)" xlink:href="#al"/><use transform="matrix(0.05,0,0,0.05,71.95,0)" xlink:href="#av"/></g><g id="v"><use transform="matrix(0.05,0,0,0.05,0,0)" xlink:href="#ax"/><use transform="matrix(0.05,0,0,0.05,5.95,0)" xlink:href="#at"/><use transform="matrix(0.05,0,0,0.05,15.949999999999998,0)" xlink:href="#ay"/><use transform="matrix(0.05,0,0,0.05,24.95,0)" xlink:href="#az"/><use transform="matrix(0.05,0,0,0.05,34.95,0)" xlink:href="#am"/><use transform="matrix(0.05,0,0,0.05,38.900000000000006,0)" xlink:href="#aw"/><use transform="matrix(0.05,0,0,0.05,43.900000000000006,0)" xlink:href="#ay"/></g><path fill="#333" d="M63-220v92h138v28H63V0H30v-248h175v28H63" id="aG"/><g id="w"><use transform="matrix(0.05,0,0,0.05,0,0)" xlink:href="#aA"/><use transform="matrix(0.05,0,0,0.05,5,0)" xlink:href="#aG"/><use transform="matrix(0.05,0,0,0.05,15.950000000000001,0)" xlink:href="#al"/><use transform="matrix(0.05,0,0,0.05,25.950000000000003,0)" xlink:href="#ax"/></g><path fill="#333" d="M106-169C34-169 62-67 57 0H25v-261h32l-1 103c12-21 28-36 61-36 89 0 53 116 60 194h-32v-121c2-32-8-49-39-48" id="aH"/><g id="x"><use transform="matrix(0.05,0,0,0.05,0,0)" xlink:href="#at"/><use transform="matrix(0.05,0,0,0.05,10,0)" xlink:href="#ao"/><use transform="matrix(0.05,0,0,0.05,20,0)" xlink:href="#ap"/><use transform="matrix(0.05,0,0,0.05,29,0)" xlink:href="#aH"/></g><g id="y"><use transform="matrix(0.05,0,0,0.05,0,0)" xlink:href="#aF"/><use transform="matrix(0.05,0,0,0.05,3.95,0)" xlink:href="#av"/><use transform="matrix(0.05,0,0,0.05,13.949999999999998,0)" xlink:href="#au"/><use transform="matrix(0.05,0,0,0.05,22.95,0)" xlink:href="#al"/><use transform="matrix(0.05,0,0,0.05,32.95,0)" xlink:href="#ap"/><use transform="matrix(0.05,0,0,0.05,41.95,0)" xlink:href="#ao"/><use transform="matrix(0.05,0,0,0.05,51.95,0)" xlink:href="#aw"/><use transform="matrix(0.05,0,0,0.05,56.95,0)" xlink:href="#aF"/><use transform="matrix(0.05,0,0,0.05,60.900000000000006,0)" xlink:href="#al"/><use transform="matrix(0.05,0,0,0.05,70.9,0)" xlink:href="#av"/></g><g id="z"><use transform="matrix(0.05,0,0,0.05,0,0)" xlink:href="#ax"/><use transform="matrix(0.05,0,0,0.05,5.95,0)" xlink:href="#at"/><use transform="matrix(0.05,0,0,0.05,15.949999999999998,0)" xlink:href="#ay"/><use transform="matrix(0.05,0,0,0.05,24.95,0)" xlink:href="#az"/><use transform="matrix(0.05,0,0,0.05,34.95,0)" xlink:href="#am"/><use transform="matrix(0.05,0,0,0.05,38.900000000000006,0)" xlink:href="#aw"/><use transform="matrix(0.05,0,0,0.05,43.900000000000006,0)" xlink:href="#aB"/></g><g id="A"><use transform="matrix(0.05,0,0,0.05,0,0)" xlink:href="#M"/><use transform="matrix(0.05,0,0,0.05,5,0)" xlink:href="#N"/><use transform="matrix(0.05,0,0,0.05,15,0)" xlink:href="#O"/><use transform="matrix(0.05,0,0,0.05,24,0)" xlink:href="#D"/><use transform="matrix(0.05,0,0,0.05,34,0)" xlink:href="#X"/><use transform="matrix(0.05,0,0,0.05,43,0)" xlink:href="#I"/></g><g id="B"><use transform="matrix(0.05,0,0,0.05,0,0)" xlink:href="#H"/><use transform="matrix(0.05,0,0,0.05,5.95,0)" xlink:href="#D"/><use transform="matrix(0.05,0,0,0.05,15.949999999999998,0)" xlink:href="#L"/><use transform="matrix(0.05,0,0,0.05,19.9,0)" xlink:href="#L"/><use transform="matrix(0.05,0,0,0.05,23.849999999999998,0)" xlink:href="#W"/><use transform="matrix(0.05,0,0,0.05,33.849999999999994,0)" xlink:href="#Q"/><use transform="matrix(0.05,0,0,0.05,43.849999999999994,0)" xlink:href="#P"/><use transform="matrix(0.05,0,0,0.05,52.849999999999994,0)" xlink:href="#X"/></g></defs></g></svg>